<?xml version="1.0" encoding="UTF-8" standalone="no"?>
<!DOCTYPE svg PUBLIC "-//W3C//DTD SVG 1.1//EN"
 "http://www.w3.org/Graphics/SVG/1.1/DTD/svg11.dtd">
<!-- Generated by graphviz version 2.26.3 (20100126.1600)
 -->
<!-- Title: G Pages: 1 -->
<svg width="838pt" height="998pt"
 viewBox="0.00 0.00 838.00 998.00" xmlns="http://www.w3.org/2000/svg" xmlns:xlink="http://www.w3.org/1999/xlink">
<g id="graph1" class="graph" transform="scale(1 1) rotate(0) translate(4 994)">
<title>G</title>
<polygon fill="white" stroke="white" points="-4,5 -4,-994 835,-994 835,5 -4,5"/>
<g id="graph2" class="cluster"><title>cluster_Global</title>
<polyline fill="none" stroke="gray" points="314,-206 810,-206 "/>
<path fill="none" stroke="gray" d="M810,-206C816,-206 822,-212 822,-218"/>
<polyline fill="none" stroke="gray" points="822,-218 822,-970 "/>
<path fill="none" stroke="gray" d="M822,-970C822,-976 816,-982 810,-982"/>
<polyline fill="none" stroke="gray" points="810,-982 314,-982 "/>
<path fill="none" stroke="gray" d="M314,-982C308,-982 302,-976 302,-970"/>
<polyline fill="none" stroke="gray" points="302,-970 302,-218 "/>
<path fill="none" stroke="gray" d="M302,-218C302,-212 308,-206 314,-206"/>
<text text-anchor="middle" x="562" y="-968.1" font-family="Times Roman,serif" font-size="11.00" fill="gray">Global</text>
</g>
<!-- \\LocalizationAppController -->
<g id="node2" class="node"><title>\\LocalizationAppController</title>
<polygon fill="none" stroke="black" points="495,-898 311,-898 311,-862 495,-862 495,-898"/>
<text text-anchor="middle" x="403" y="-877.1" font-family="Courier,monospace" font-size="11.00">LocalizationAppController</text>
</g>
<!-- \\AppController -->
<g id="node19" class="node"><title>\\AppController</title>
<ellipse fill="none" stroke="black" cx="82" cy="-880" rx="82.0244" ry="18.3848"/>
<text text-anchor="middle" x="82" y="-876.4" font-family="Times Roman,serif" font-size="14.00" fill="gray">\AppController</text>
</g>
<!-- \\LocalizationAppController&#45;&gt;\\AppController -->
<g id="edge3" class="edge"><title>\\LocalizationAppController&#45;&gt;\\AppController</title>
<path fill="none" stroke="black" d="M310.153,-880C267.47,-880 216.972,-880 174.35,-880"/>
<polygon fill="none" stroke="black" points="174.258,-876.5 164.258,-880 174.258,-883.5 174.258,-876.5"/>
</g>
<!-- \\MessagesController -->
<g id="node3" class="node"><title>\\MessagesController</title>
<polygon fill="none" stroke="black" points="797,-952 659,-952 659,-916 797,-916 797,-952"/>
<text text-anchor="middle" x="728" y="-931.1" font-family="Courier,monospace" font-size="11.00">MessagesController</text>
</g>
<!-- \\MessagesController&#45;&gt;\\LocalizationAppController -->
<g id="edge5" class="edge"><title>\\MessagesController&#45;&gt;\\LocalizationAppController</title>
<path fill="none" stroke="black" d="M658.678,-922.482C614.204,-915.092 555.666,-905.366 505.825,-897.085"/>
<polygon fill="none" stroke="black" points="506.094,-893.582 495.655,-895.395 504.946,-900.487 506.094,-893.582"/>
</g>
<!-- \\LocalizationController -->
<g id="node4" class="node"><title>\\LocalizationController</title>
<polygon fill="none" stroke="black" points="810,-898 646,-898 646,-862 810,-862 810,-898"/>
<text text-anchor="middle" x="728" y="-877.1" font-family="Courier,monospace" font-size="11.00">LocalizationController</text>
</g>
<!-- \\LocalizationController&#45;&gt;\\LocalizationAppController -->
<g id="edge7" class="edge"><title>\\LocalizationController&#45;&gt;\\LocalizationAppController</title>
<path fill="none" stroke="black" d="M645.148,-880C602.749,-880 550.739,-880 505.802,-880"/>
<polygon fill="none" stroke="black" points="505.735,-876.5 495.735,-880 505.735,-883.5 505.735,-876.5"/>
</g>
<!-- \\LanguagesController -->
<g id="node5" class="node"><title>\\LanguagesController</title>
<polygon fill="none" stroke="black" points="800,-844 656,-844 656,-808 800,-808 800,-844"/>
<text text-anchor="middle" x="728" y="-823.1" font-family="Courier,monospace" font-size="11.00">LanguagesController</text>
</g>
<!-- \\LanguagesController&#45;&gt;\\LocalizationAppController -->
<g id="edge9" class="edge"><title>\\LanguagesController&#45;&gt;\\LocalizationAppController</title>
<path fill="none" stroke="black" d="M655.468,-838.051C611.363,-845.38 554.345,-854.853 505.658,-862.943"/>
<polygon fill="none" stroke="black" points="505.012,-859.502 495.721,-864.594 506.159,-866.408 505.012,-859.502"/>
</g>
<!-- \\Translation -->
<g id="node6" class="node"><title>\\Translation</title>
<polygon fill="none" stroke="black" points="773,-790 683,-790 683,-754 773,-754 773,-790"/>
<text text-anchor="middle" x="728" y="-769.1" font-family="Courier,monospace" font-size="11.00">Translation</text>
</g>
<!-- \\LocalizationAppModel -->
<g id="node9" class="node"><title>\\LocalizationAppModel</title>
<polygon fill="none" stroke="black" points="479,-736 327,-736 327,-700 479,-700 479,-736"/>
<text text-anchor="start" x="369" y="-723.433" font-family="Courier,monospace" font-size="11.00">«abstract»</text>
<text text-anchor="start" x="335" y="-710.233" font-family="Courier,monospace" font-size="11.00">LocalizationAppModel</text>
</g>
<!-- \\Translation&#45;&gt;\\LocalizationAppModel -->
<g id="edge11" class="edge"><title>\\Translation&#45;&gt;\\LocalizationAppModel</title>
<path fill="none" stroke="black" d="M682.468,-764.435C632.74,-756.172 551.924,-742.744 489.958,-732.448"/>
<polygon fill="none" stroke="black" points="490.231,-728.946 479.793,-730.759 489.084,-735.851 490.231,-728.946"/>
</g>
<!-- \\Language -->
<g id="node7" class="node"><title>\\Language</title>
<polygon fill="none" stroke="black" points="763,-736 693,-736 693,-700 763,-700 763,-736"/>
<text text-anchor="middle" x="728" y="-715.1" font-family="Courier,monospace" font-size="11.00">Language</text>
</g>
<!-- \\Language&#45;&gt;\\LocalizationAppModel -->
<g id="edge13" class="edge"><title>\\Language&#45;&gt;\\LocalizationAppModel</title>
<path fill="none" stroke="black" d="M692.29,-718C643.903,-718 555.958,-718 489.691,-718"/>
<polygon fill="none" stroke="black" points="489.665,-714.5 479.665,-718 489.665,-721.5 489.665,-714.5"/>
</g>
<!-- \\Message -->
<g id="node8" class="node"><title>\\Message</title>
<polygon fill="none" stroke="black" points="760,-682 696,-682 696,-646 760,-646 760,-682"/>
<text text-anchor="middle" x="728" y="-661.1" font-family="Courier,monospace" font-size="11.00">Message</text>
</g>
<!-- \\Message&#45;&gt;\\LocalizationAppModel -->
<g id="edge15" class="edge"><title>\\Message&#45;&gt;\\LocalizationAppModel</title>
<path fill="none" stroke="black" d="M695.742,-671.211C663.896,-678.17 613.755,-688.696 570,-696 544.026,-700.336 515.663,-704.343 489.805,-707.717"/>
<polygon fill="none" stroke="black" points="489.121,-704.276 479.651,-709.026 490.016,-711.219 489.121,-704.276"/>
</g>
<!-- \\AppModel -->
<g id="node27" class="node"><title>\\AppModel</title>
<ellipse fill="none" stroke="black" cx="82" cy="-718" rx="62.2254" ry="18.3848"/>
<text text-anchor="middle" x="82" y="-714.4" font-family="Times Roman,serif" font-size="14.00" fill="gray">\AppModel</text>
</g>
<!-- \\LocalizationAppModel&#45;&gt;\\AppModel -->
<g id="edge17" class="edge"><title>\\LocalizationAppModel&#45;&gt;\\AppModel</title>
<path fill="none" stroke="black" d="M326.113,-718C273.969,-718 205.489,-718 154.334,-718"/>
<polygon fill="none" stroke="black" points="154.019,-714.5 144.019,-718 154.019,-721.5 154.019,-714.5"/>
</g>
<!-- \\AllLocalizationTest -->
<g id="node10" class="node"><title>\\AllLocalizationTest</title>
<polygon fill="none" stroke="black" points="800,-628 656,-628 656,-592 800,-592 800,-628"/>
<text text-anchor="middle" x="728" y="-607.1" font-family="Courier,monospace" font-size="11.00">AllLocalizationTest</text>
</g>
<!-- \\PHPUnit_Framework_TestSuite -->
<g id="node29" class="node"><title>\\PHPUnit_Framework_TestSuite</title>
<ellipse fill="none" stroke="black" cx="403" cy="-180" rx="166.877" ry="18.3848"/>
<text text-anchor="middle" x="403" y="-176.4" font-family="Times Roman,serif" font-size="14.00" fill="gray">\PHPUnit_Framework_TestSuite</text>
</g>
<!-- \\AllLocalizationTest&#45;&gt;\\PHPUnit_Framework_TestSuite -->
<g id="edge19" class="edge"><title>\\AllLocalizationTest&#45;&gt;\\PHPUnit_Framework_TestSuite</title>
<path fill="none" stroke="black" d="M655.316,-594.03C650.378,-590.968 645.847,-587.327 642,-583 527.505,-454.203 695.207,-320.41 570,-202 566.833,-199.005 563.468,-196.284 559.94,-193.815"/>
<polygon fill="none" stroke="black" points="561.763,-190.828 551.427,-188.503 558.058,-196.766 561.763,-190.828"/>
</g>
<!-- \\MessagesControllerTest -->
<g id="node11" class="node"><title>\\MessagesControllerTest</title>
<polygon fill="none" stroke="black" points="810,-574 646,-574 646,-538 810,-538 810,-574"/>
<text text-anchor="middle" x="728" y="-553.1" font-family="Courier,monospace" font-size="11.00">MessagesControllerTest</text>
</g>
<!-- \\ControllerTestCase -->
<g id="node31" class="node"><title>\\ControllerTestCase</title>
<ellipse fill="none" stroke="black" cx="403" cy="-126" rx="106.773" ry="18.3848"/>
<text text-anchor="middle" x="403" y="-122.4" font-family="Times Roman,serif" font-size="14.00" fill="gray">\ControllerTestCase</text>
</g>
<!-- \\MessagesControllerTest&#45;&gt;\\ControllerTestCase -->
<g id="edge21" class="edge"><title>\\MessagesControllerTest&#45;&gt;\\ControllerTestCase</title>
<path fill="none" stroke="black" d="M652.183,-537.953C648.458,-535.355 645.019,-532.388 642,-529 528.801,-401.972 692.039,-271.561 570,-153 556.098,-139.494 538.265,-131.157 519.451,-126.222"/>
<polygon fill="none" stroke="black" points="520.07,-122.773 509.539,-123.942 518.5,-129.595 520.07,-122.773"/>
</g>
<!-- \\LanguagesControllerTest -->
<g id="node12" class="node"><title>\\LanguagesControllerTest</title>
<polygon fill="none" stroke="black" points="814,-520 642,-520 642,-484 814,-484 814,-520"/>
<text text-anchor="middle" x="728" y="-499.1" font-family="Courier,monospace" font-size="11.00">LanguagesControllerTest</text>
</g>
<!-- \\LanguagesControllerTest&#45;&gt;\\ControllerTestCase -->
<g id="edge23" class="edge"><title>\\LanguagesControllerTest&#45;&gt;\\ControllerTestCase</title>
<path fill="none" stroke="black" d="M652.305,-483.842C648.55,-481.272 645.071,-478.341 642,-475 542.764,-367.033 676.742,-253.553 570,-153 555.982,-139.795 538.19,-131.583 519.475,-126.673"/>
<polygon fill="none" stroke="black" points="520.151,-123.237 509.62,-124.398 518.576,-130.058 520.151,-123.237"/>
</g>
<!-- \\LanguageTest -->
<g id="node13" class="node"><title>\\LanguageTest</title>
<polygon fill="none" stroke="black" points="777,-466 679,-466 679,-430 777,-430 777,-466"/>
<text text-anchor="middle" x="728" y="-445.1" font-family="Courier,monospace" font-size="11.00">LanguageTest</text>
</g>
<!-- \\CakeTestCase -->
<g id="node34" class="node"><title>\\CakeTestCase</title>
<ellipse fill="none" stroke="black" cx="403" cy="-72" rx="82.0244" ry="18.3848"/>
<text text-anchor="middle" x="403" y="-68.4" font-family="Times Roman,serif" font-size="14.00" fill="gray">\CakeTestCase</text>
</g>
<!-- \\LanguageTest&#45;&gt;\\CakeTestCase -->
<g id="edge25" class="edge"><title>\\LanguageTest&#45;&gt;\\CakeTestCase</title>
<path fill="none" stroke="black" d="M678.885,-441.876C665.289,-437.927 651.637,-431.485 642,-421 542.764,-313.033 676.742,-199.553 570,-99 549.152,-79.3603 519.952,-70.7658 491.789,-67.6513"/>
<polygon fill="none" stroke="black" points="491.747,-64.1341 481.478,-66.7415 491.132,-71.107 491.747,-64.1341"/>
</g>
<!-- \\MessageTest -->
<g id="node14" class="node"><title>\\MessageTest</title>
<polygon fill="none" stroke="black" points="773,-412 683,-412 683,-376 773,-376 773,-412"/>
<text text-anchor="middle" x="728" y="-391.1" font-family="Courier,monospace" font-size="11.00">MessageTest</text>
</g>
<!-- \\MessageTest&#45;&gt;\\CakeTestCase -->
<g id="edge27" class="edge"><title>\\MessageTest&#45;&gt;\\CakeTestCase</title>
<path fill="none" stroke="black" d="M682.291,-388.489C667.706,-384.619 652.616,-378.068 642,-367 556.629,-277.988 661.55,-181.644 570,-99 549.03,-80.0704 520.243,-71.554 492.472,-68.2981"/>
<polygon fill="none" stroke="black" points="492.59,-64.7936 482.303,-67.327 491.925,-71.7619 492.59,-64.7936"/>
</g>
<!-- \\LanguageFixture -->
<g id="node15" class="node"><title>\\LanguageFixture</title>
<polygon fill="none" stroke="black" points="787,-358 669,-358 669,-322 787,-322 787,-358"/>
<text text-anchor="middle" x="728" y="-337.1" font-family="Courier,monospace" font-size="11.00">LanguageFixture</text>
</g>
<!-- \\CakeTestFixture -->
<g id="node37" class="node"><title>\\CakeTestFixture</title>
<ellipse fill="none" stroke="black" cx="403" cy="-18" rx="92.1303" ry="18.3848"/>
<text text-anchor="middle" x="403" y="-14.4" font-family="Times Roman,serif" font-size="14.00" fill="gray">\CakeTestFixture</text>
</g>
<!-- \\LanguageFixture&#45;&gt;\\CakeTestFixture -->
<g id="edge29" class="edge"><title>\\LanguageFixture&#45;&gt;\\CakeTestFixture</title>
<path fill="none" stroke="black" d="M668.897,-330.129C658.887,-326.185 649.366,-320.68 642,-313 556.629,-223.988 661.55,-127.644 570,-45 551.893,-28.6546 527.957,-20.0733 503.879,-15.9387"/>
<polygon fill="none" stroke="black" points="504.338,-12.4685 493.934,-14.4743 503.318,-19.3939 504.338,-12.4685"/>
</g>
<!-- \\TranslationFixture -->
<g id="node16" class="node"><title>\\TranslationFixture</title>
<polygon fill="none" stroke="black" points="797,-304 659,-304 659,-268 797,-268 797,-304"/>
<text text-anchor="middle" x="728" y="-283.1" font-family="Courier,monospace" font-size="11.00">TranslationFixture</text>
</g>
<!-- \\TranslationFixture&#45;&gt;\\CakeTestFixture -->
<g id="edge31" class="edge"><title>\\TranslationFixture&#45;&gt;\\CakeTestFixture</title>
<path fill="none" stroke="black" d="M658.867,-271.033C652.686,-267.779 646.918,-263.819 642,-259 570.324,-188.767 646.54,-109.898 570,-45 551.771,-29.5439 528.257,-21.1858 504.66,-16.9748"/>
<polygon fill="none" stroke="black" points="504.974,-13.4819 494.557,-15.4154 503.906,-20.4 504.974,-13.4819"/>
</g>
<!-- \\MessageFixture -->
<g id="node17" class="node"><title>\\MessageFixture</title>
<polygon fill="none" stroke="black" points="783,-250 673,-250 673,-214 783,-214 783,-250"/>
<text text-anchor="middle" x="728" y="-229.1" font-family="Courier,monospace" font-size="11.00">MessageFixture</text>
</g>
<!-- \\MessageFixture&#45;&gt;\\CakeTestFixture -->
<g id="edge33" class="edge"><title>\\MessageFixture&#45;&gt;\\CakeTestFixture</title>
<path fill="none" stroke="black" d="M718.624,-213.933C697.707,-175.638 643.248,-86.4323 570,-45 550.181,-33.7897 527.051,-26.8931 504.431,-22.7255"/>
<polygon fill="none" stroke="black" points="504.877,-19.2514 494.435,-21.0495 503.719,-26.155 504.877,-19.2514"/>
</g>
</g>
</svg>
