<?xml version="1.0" encoding="UTF-8" standalone="no"?>
<!DOCTYPE svg PUBLIC "-//W3C//DTD SVG 1.1//EN"
 "http://www.w3.org/Graphics/SVG/1.1/DTD/svg11.dtd">
<!-- Generated by graphviz version 2.26.3 (20100126.1600)
 -->
<!-- Title: G Pages: 1 -->
<svg width="866pt" height="1538pt"
 viewBox="0.00 0.00 866.00 1538.00" xmlns="http://www.w3.org/2000/svg" xmlns:xlink="http://www.w3.org/1999/xlink">
<g id="graph1" class="graph" transform="scale(1 1) rotate(0) translate(4 1534)">
<title>G</title>
<polygon fill="white" stroke="white" points="-4,5 -4,-1534 863,-1534 863,5 -4,5"/>
<g id="graph2" class="cluster"><title>cluster_Global</title>
<polyline fill="none" stroke="gray" points="314,-314 838,-314 "/>
<path fill="none" stroke="gray" d="M838,-314C844,-314 850,-320 850,-326"/>
<polyline fill="none" stroke="gray" points="850,-326 850,-1510 "/>
<path fill="none" stroke="gray" d="M850,-1510C850,-1516 844,-1522 838,-1522"/>
<polyline fill="none" stroke="gray" points="838,-1522 314,-1522 "/>
<path fill="none" stroke="gray" d="M314,-1522C308,-1522 302,-1516 302,-1510"/>
<polyline fill="none" stroke="gray" points="302,-1510 302,-326 "/>
<path fill="none" stroke="gray" d="M302,-326C302,-320 308,-314 314,-314"/>
<text text-anchor="middle" x="576" y="-1508.1" font-family="Times Roman,serif" font-size="11.00" fill="gray">Global</text>
</g>
<!-- \\LanguagesController -->
<g id="node2" class="node"><title>\\LanguagesController</title>
<polygon fill="none" stroke="black" points="814,-1492 670,-1492 670,-1456 814,-1456 814,-1492"/>
<text text-anchor="middle" x="742" y="-1471.1" font-family="Courier,monospace" font-size="11.00">LanguagesController</text>
</g>
<!-- \\LocalizationAppController -->
<g id="node4" class="node"><title>\\LocalizationAppController</title>
<polygon fill="none" stroke="black" points="495,-1438 311,-1438 311,-1402 495,-1402 495,-1438"/>
<text text-anchor="middle" x="403" y="-1417.1" font-family="Courier,monospace" font-size="11.00">LocalizationAppController</text>
</g>
<!-- \\LanguagesController&#45;&gt;\\LocalizationAppController -->
<g id="edge3" class="edge"><title>\\LanguagesController&#45;&gt;\\LocalizationAppController</title>
<path fill="none" stroke="black" d="M669.276,-1462.42C621.573,-1454.82 558.491,-1444.77 505.7,-1436.36"/>
<polygon fill="none" stroke="black" points="506.054,-1432.87 495.628,-1434.75 504.953,-1439.78 506.054,-1432.87"/>
</g>
<!-- \\MessagesController -->
<g id="node3" class="node"><title>\\MessagesController</title>
<polygon fill="none" stroke="black" points="811,-1438 673,-1438 673,-1402 811,-1402 811,-1438"/>
<text text-anchor="middle" x="742" y="-1417.1" font-family="Courier,monospace" font-size="11.00">MessagesController</text>
</g>
<!-- \\MessagesController&#45;&gt;\\LocalizationAppController -->
<g id="edge5" class="edge"><title>\\MessagesController&#45;&gt;\\LocalizationAppController</title>
<path fill="none" stroke="black" d="M672.99,-1420C624.976,-1420 560.126,-1420 506.017,-1420"/>
<polygon fill="none" stroke="black" points="505.696,-1416.5 495.696,-1420 505.696,-1423.5 505.696,-1416.5"/>
</g>
<!-- \\AppController -->
<g id="node29" class="node"><title>\\AppController</title>
<ellipse fill="none" stroke="black" cx="82" cy="-1420" rx="82.0244" ry="18.3848"/>
<text text-anchor="middle" x="82" y="-1416.4" font-family="Times Roman,serif" font-size="14.00" fill="gray">\AppController</text>
</g>
<!-- \\LocalizationAppController&#45;&gt;\\AppController -->
<g id="edge7" class="edge"><title>\\LocalizationAppController&#45;&gt;\\AppController</title>
<path fill="none" stroke="black" d="M310.153,-1420C267.47,-1420 216.972,-1420 174.35,-1420"/>
<polygon fill="none" stroke="black" points="174.258,-1416.5 164.258,-1420 174.258,-1423.5 174.258,-1416.5"/>
</g>
<!-- \\LocalizationController -->
<g id="node5" class="node"><title>\\LocalizationController</title>
<polygon fill="none" stroke="black" points="824,-1384 660,-1384 660,-1348 824,-1348 824,-1384"/>
<text text-anchor="middle" x="742" y="-1363.1" font-family="Courier,monospace" font-size="11.00">LocalizationController</text>
</g>
<!-- \\LocalizationController&#45;&gt;\\LocalizationAppController -->
<g id="edge9" class="edge"><title>\\LocalizationController&#45;&gt;\\LocalizationAppController</title>
<path fill="none" stroke="black" d="M659.071,-1379.21C612.767,-1386.59 554.681,-1395.84 505.541,-1403.67"/>
<polygon fill="none" stroke="black" points="504.843,-1400.23 495.519,-1405.26 505.945,-1407.15 504.843,-1400.23"/>
</g>
<!-- \\MessageReferenceFixture -->
<g id="node6" class="node"><title>\\MessageReferenceFixture</title>
<polygon fill="none" stroke="black" points="828,-1060 656,-1060 656,-1024 828,-1024 828,-1060"/>
<text text-anchor="middle" x="742" y="-1039.1" font-family="Courier,monospace" font-size="11.00">MessageReferenceFixture</text>
</g>
<!-- \\CakeTestFixture -->
<g id="node32" class="node"><title>\\CakeTestFixture</title>
<ellipse fill="none" stroke="black" cx="403" cy="-288" rx="92.1303" ry="18.3848"/>
<text text-anchor="middle" x="403" y="-284.4" font-family="Times Roman,serif" font-size="14.00" fill="gray">\CakeTestFixture</text>
</g>
<!-- \\MessageReferenceFixture&#45;&gt;\\CakeTestFixture -->
<g id="edge11" class="edge"><title>\\MessageReferenceFixture&#45;&gt;\\CakeTestFixture</title>
<path fill="none" stroke="black" d="M655.756,-1026.81C650.631,-1023.56 645.96,-1019.66 642,-1015 540.015,-895.002 679.718,-422.971 570,-310 550.13,-289.541 521.164,-281.478 492.915,-279.334"/>
<polygon fill="none" stroke="black" points="492.725,-275.82 482.558,-278.8 492.365,-282.81 492.725,-275.82"/>
</g>
<!-- \\MessageFixture -->
<g id="node7" class="node"><title>\\MessageFixture</title>
<polygon fill="none" stroke="black" points="797,-1006 687,-1006 687,-970 797,-970 797,-1006"/>
<text text-anchor="middle" x="742" y="-985.1" font-family="Courier,monospace" font-size="11.00">MessageFixture</text>
</g>
<!-- \\MessageFixture&#45;&gt;\\CakeTestFixture -->
<g id="edge13" class="edge"><title>\\MessageFixture&#45;&gt;\\CakeTestFixture</title>
<path fill="none" stroke="black" d="M686.284,-984.786C669.755,-981.033 653.118,-973.971 642,-961 452.558,-739.981 773.682,-517.97 570,-310 550.136,-289.718 521.323,-281.655 493.204,-279.46"/>
<polygon fill="none" stroke="black" points="493.067,-275.947 482.893,-278.905 492.691,-282.937 493.067,-275.947"/>
</g>
<!-- \\LanguageFixture -->
<g id="node8" class="node"><title>\\LanguageFixture</title>
<polygon fill="none" stroke="black" points="801,-952 683,-952 683,-916 801,-916 801,-952"/>
<text text-anchor="middle" x="742" y="-931.1" font-family="Courier,monospace" font-size="11.00">LanguageFixture</text>
</g>
<!-- \\LanguageFixture&#45;&gt;\\CakeTestFixture -->
<g id="edge15" class="edge"><title>\\LanguageFixture&#45;&gt;\\CakeTestFixture</title>
<path fill="none" stroke="black" d="M682.968,-929.902C667.582,-925.972 652.417,-919.032 642,-907 467.074,-704.944 757.94,-500.011 570,-310 550.128,-289.909 521.463,-281.851 493.475,-279.604"/>
<polygon fill="none" stroke="black" points="493.392,-276.094 483.212,-279.028 493,-283.083 493.392,-276.094"/>
</g>
<!-- \\TranslationFixture -->
<g id="node9" class="node"><title>\\TranslationFixture</title>
<polygon fill="none" stroke="black" points="811,-898 673,-898 673,-862 811,-862 811,-898"/>
<text text-anchor="middle" x="742" y="-877.1" font-family="Courier,monospace" font-size="11.00">TranslationFixture</text>
</g>
<!-- \\TranslationFixture&#45;&gt;\\CakeTestFixture -->
<g id="edge17" class="edge"><title>\\TranslationFixture&#45;&gt;\\CakeTestFixture</title>
<path fill="none" stroke="black" d="M672.967,-872.767C661.21,-868.596 650.177,-862.333 642,-853 481.575,-669.889 742.215,-482.069 570,-310 550.194,-290.21 521.844,-282.146 494.111,-279.805"/>
<polygon fill="none" stroke="black" points="494.132,-276.3 483.939,-279.19 493.709,-283.287 494.132,-276.3"/>
</g>
<!-- \\LocalizationControllerTest -->
<g id="node10" class="node"><title>\\LocalizationControllerTest</title>
<polygon fill="none" stroke="black" points="838,-844 646,-844 646,-808 838,-808 838,-844"/>
<text text-anchor="middle" x="742" y="-823.1" font-family="Courier,monospace" font-size="11.00">LocalizationControllerTest</text>
</g>
<!-- \\ControllerTestCase -->
<g id="node37" class="node"><title>\\ControllerTestCase</title>
<ellipse fill="none" stroke="black" cx="403" cy="-234" rx="106.773" ry="18.3848"/>
<text text-anchor="middle" x="403" y="-230.4" font-family="Times Roman,serif" font-size="14.00" fill="gray">\ControllerTestCase</text>
</g>
<!-- \\LocalizationControllerTest&#45;&gt;\\ControllerTestCase -->
<g id="edge19" class="edge"><title>\\LocalizationControllerTest&#45;&gt;\\ControllerTestCase</title>
<path fill="none" stroke="black" d="M651.916,-807.978C648.304,-805.357 644.965,-802.38 642,-799 482.917,-617.642 738.244,-433.893 570,-261 556.07,-246.685 537.755,-238.07 518.368,-233.138"/>
<polygon fill="none" stroke="black" points="518.986,-229.69 508.466,-230.943 517.472,-236.524 518.986,-229.69"/>
</g>
<!-- \\LanguagesControllerTest -->
<g id="node11" class="node"><title>\\LanguagesControllerTest</title>
<polygon fill="none" stroke="black" points="828,-790 656,-790 656,-754 828,-754 828,-790"/>
<text text-anchor="middle" x="742" y="-769.1" font-family="Courier,monospace" font-size="11.00">LanguagesControllerTest</text>
</g>
<!-- \\LanguagesControllerTest&#45;&gt;\\ControllerTestCase -->
<g id="edge21" class="edge"><title>\\LanguagesControllerTest&#45;&gt;\\ControllerTestCase</title>
<path fill="none" stroke="black" d="M655.995,-756.605C650.815,-753.397 646.065,-749.567 642,-745 497.395,-582.561 722.808,-415.747 570,-261 556.054,-246.877 537.832,-238.329 518.565,-233.396"/>
<polygon fill="none" stroke="black" points="519.248,-229.963 508.725,-231.197 517.721,-236.794 519.248,-229.963"/>
</g>
<!-- \\MessagesControllerTest -->
<g id="node12" class="node"><title>\\MessagesControllerTest</title>
<polygon fill="none" stroke="black" points="824,-736 660,-736 660,-700 824,-700 824,-736"/>
<text text-anchor="middle" x="742" y="-715.1" font-family="Courier,monospace" font-size="11.00">MessagesControllerTest</text>
</g>
<!-- \\MessagesControllerTest&#45;&gt;\\ControllerTestCase -->
<g id="edge23" class="edge"><title>\\MessagesControllerTest&#45;&gt;\\ControllerTestCase</title>
<path fill="none" stroke="black" d="M659.353,-704.414C652.883,-700.867 646.952,-696.462 642,-691 511.845,-547.448 707.401,-397.632 570,-261 556.167,-247.245 538.27,-238.81 519.349,-233.86"/>
<polygon fill="none" stroke="black" points="519.906,-230.397 509.377,-231.58 518.345,-237.221 519.906,-230.397"/>
</g>
<!-- \\LocalizationExtractTaskTest -->
<g id="node13" class="node"><title>\\LocalizationExtractTaskTest</title>
<polygon fill="none" stroke="black" points="841,-682 643,-682 643,-646 841,-646 841,-682"/>
<text text-anchor="middle" x="742" y="-661.1" font-family="Courier,monospace" font-size="11.00">LocalizationExtractTaskTest</text>
</g>
<!-- \\CakeTestCase -->
<g id="node41" class="node"><title>\\CakeTestCase</title>
<ellipse fill="none" stroke="black" cx="403" cy="-180" rx="82.0244" ry="18.3848"/>
<text text-anchor="middle" x="403" y="-176.4" font-family="Times Roman,serif" font-size="14.00" fill="gray">\CakeTestCase</text>
</g>
<!-- \\LocalizationExtractTaskTest&#45;&gt;\\CakeTestCase -->
<g id="edge25" class="edge"><title>\\LocalizationExtractTaskTest&#45;&gt;\\CakeTestCase</title>
<path fill="none" stroke="black" d="M652.051,-645.858C648.403,-643.268 645.02,-640.331 642,-637 511.845,-493.448 707.401,-343.632 570,-207 549.228,-186.345 519.293,-177.686 490.486,-174.811"/>
<polygon fill="none" stroke="black" points="490.602,-171.31 480.361,-174.025 490.061,-178.289 490.602,-171.31"/>
</g>
<!-- \\LanguageTest -->
<g id="node14" class="node"><title>\\LanguageTest</title>
<polygon fill="none" stroke="black" points="791,-628 693,-628 693,-592 791,-592 791,-628"/>
<text text-anchor="middle" x="742" y="-607.1" font-family="Courier,monospace" font-size="11.00">LanguageTest</text>
</g>
<!-- \\LanguageTest&#45;&gt;\\CakeTestCase -->
<g id="edge27" class="edge"><title>\\LanguageTest&#45;&gt;\\CakeTestCase</title>
<path fill="none" stroke="black" d="M692.85,-607.492C674.524,-604.068 655.028,-597.037 642,-583 526.253,-458.29 692.039,-325.561 570,-207 549.178,-186.771 519.538,-178.138 490.994,-175.163"/>
<polygon fill="none" stroke="black" points="491.213,-171.669 480.959,-174.336 490.638,-178.645 491.213,-171.669"/>
</g>
<!-- \\LocalizationTest -->
<g id="node15" class="node"><title>\\LocalizationTest</title>
<polygon fill="none" stroke="black" points="804,-574 680,-574 680,-538 804,-538 804,-574"/>
<text text-anchor="middle" x="742" y="-553.1" font-family="Courier,monospace" font-size="11.00">LocalizationTest</text>
</g>
<!-- \\LocalizationTest&#45;&gt;\\CakeTestCase -->
<g id="edge29" class="edge"><title>\\LocalizationTest&#45;&gt;\\CakeTestCase</title>
<path fill="none" stroke="black" d="M679.299,-549.999C665.444,-545.927 651.948,-539.393 642,-529 540.598,-423.064 676.742,-307.553 570,-207 549.152,-187.36 519.952,-178.766 491.789,-175.651"/>
<polygon fill="none" stroke="black" points="491.747,-172.134 481.478,-174.742 491.132,-179.107 491.747,-172.134"/>
</g>
<!-- \\MessageTest -->
<g id="node16" class="node"><title>\\MessageTest</title>
<polygon fill="none" stroke="black" points="787,-520 697,-520 697,-484 787,-484 787,-520"/>
<text text-anchor="middle" x="742" y="-499.1" font-family="Courier,monospace" font-size="11.00">MessageTest</text>
</g>
<!-- \\MessageTest&#45;&gt;\\CakeTestCase -->
<g id="edge31" class="edge"><title>\\MessageTest&#45;&gt;\\CakeTestCase</title>
<path fill="none" stroke="black" d="M696.439,-499.553C677.339,-496.262 656.296,-489.314 642,-475 554.844,-387.735 661.55,-289.644 570,-207 549.03,-188.07 520.243,-179.554 492.472,-176.298"/>
<polygon fill="none" stroke="black" points="492.59,-172.794 482.303,-175.327 491.925,-179.762 492.59,-172.794"/>
</g>
<!-- \\AllLocalizationTest -->
<g id="node17" class="node"><title>\\AllLocalizationTest</title>
<polygon fill="none" stroke="black" points="814,-466 670,-466 670,-430 814,-430 814,-466"/>
<text text-anchor="middle" x="742" y="-445.1" font-family="Courier,monospace" font-size="11.00">AllLocalizationTest</text>
</g>
<!-- \\PHPUnit_Framework_TestSuite -->
<g id="node46" class="node"><title>\\PHPUnit_Framework_TestSuite</title>
<ellipse fill="none" stroke="black" cx="403" cy="-126" rx="166.877" ry="18.3848"/>
<text text-anchor="middle" x="403" y="-122.4" font-family="Times Roman,serif" font-size="14.00" fill="gray">\PHPUnit_Framework_TestSuite</text>
</g>
<!-- \\AllLocalizationTest&#45;&gt;\\PHPUnit_Framework_TestSuite -->
<g id="edge33" class="edge"><title>\\AllLocalizationTest&#45;&gt;\\PHPUnit_Framework_TestSuite</title>
<path fill="none" stroke="black" d="M669.313,-438.179C659.168,-434.173 649.625,-428.634 642,-421 554.844,-333.735 661.55,-235.644 570,-153 564.727,-148.24 558.96,-144.138 552.838,-140.613"/>
<polygon fill="none" stroke="black" points="554.123,-137.337 543.633,-135.852 550.907,-143.555 554.123,-137.337"/>
</g>
<!-- \\MessagesShell -->
<g id="node18" class="node"><title>\\MessagesShell</title>
<polygon fill="none" stroke="black" points="794,-412 690,-412 690,-376 794,-376 794,-412"/>
<text text-anchor="middle" x="742" y="-391.1" font-family="Courier,monospace" font-size="11.00">MessagesShell</text>
</g>
<!-- \\AppShell -->
<g id="node48" class="node"><title>\\AppShell</title>
<ellipse fill="none" stroke="black" cx="403" cy="-72" rx="56.7776" ry="18.3848"/>
<text text-anchor="middle" x="403" y="-68.4" font-family="Times Roman,serif" font-size="14.00" fill="gray">\AppShell</text>
</g>
<!-- \\MessagesShell&#45;&gt;\\AppShell -->
<g id="edge35" class="edge"><title>\\MessagesShell&#45;&gt;\\AppShell</title>
<path fill="none" stroke="black" d="M689.753,-390.26C672.566,-386.558 654.644,-379.66 642,-367 554.844,-279.735 661.55,-181.644 570,-99 542.834,-74.477 502.547,-67.4303 468.349,-66.6568"/>
<polygon fill="none" stroke="black" points="467.97,-63.155 457.952,-66.6057 467.935,-70.1549 467.97,-63.155"/>
</g>
<!-- \\LocalizationExtractTask -->
<g id="node19" class="node"><title>\\LocalizationExtractTask</title>
<polygon fill="none" stroke="black" points="828,-358 656,-358 656,-322 828,-322 828,-358"/>
<text text-anchor="middle" x="742" y="-337.1" font-family="Courier,monospace" font-size="11.00">LocalizationExtractTask</text>
</g>
<!-- \\ExtractTask -->
<g id="node50" class="node"><title>\\ExtractTask</title>
<ellipse fill="none" stroke="black" cx="403" cy="-18" rx="70.9184" ry="18.3848"/>
<text text-anchor="middle" x="403" y="-14.4" font-family="Times Roman,serif" font-size="14.00" fill="gray">\ExtractTask</text>
</g>
<!-- \\LocalizationExtractTask&#45;&gt;\\ExtractTask -->
<g id="edge37" class="edge"><title>\\LocalizationExtractTask&#45;&gt;\\ExtractTask</title>
<path fill="none" stroke="black" d="M737.277,-321.674C722.627,-268.832 672.639,-115.462 570,-45 545.2,-27.9748 513.512,-20.2509 484.418,-17.1108"/>
<polygon fill="none" stroke="black" points="484.527,-13.6064 474.251,-16.1836 483.892,-20.5774 484.527,-13.6064"/>
</g>
<!-- \\Translation -->
<g id="node20" class="node"><title>\\Translation</title>
<polygon fill="none" stroke="black" points="787,-1330 697,-1330 697,-1294 787,-1294 787,-1330"/>
<text text-anchor="middle" x="742" y="-1309.1" font-family="Courier,monospace" font-size="11.00">Translation</text>
</g>
<!-- \\LocalizationAppModel -->
<g id="node22" class="node"><title>\\LocalizationAppModel</title>
<polygon fill="none" stroke="black" points="479,-1222 327,-1222 327,-1186 479,-1186 479,-1222"/>
<text text-anchor="start" x="369" y="-1209.43" font-family="Courier,monospace" font-size="11.00">«abstract»</text>
<text text-anchor="start" x="335" y="-1196.23" font-family="Courier,monospace" font-size="11.00">LocalizationAppModel</text>
</g>
<!-- \\Translation&#45;&gt;\\LocalizationAppModel -->
<g id="edge39" class="edge"><title>\\Translation&#45;&gt;\\LocalizationAppModel</title>
<path fill="none" stroke="black" d="M696.277,-1300.3C679.179,-1295.76 659.635,-1290.36 642,-1285 580.63,-1266.34 511.281,-1242.53 463.155,-1225.56"/>
<polygon fill="none" stroke="black" points="464.114,-1222.19 453.52,-1222.16 461.782,-1228.79 464.114,-1222.19"/>
</g>
<!-- \\Localization -->
<g id="node21" class="node"><title>\\Localization</title>
<polygon fill="none" stroke="black" points="791,-1276 693,-1276 693,-1240 791,-1240 791,-1276"/>
<text text-anchor="middle" x="742" y="-1255.1" font-family="Courier,monospace" font-size="11.00">Localization</text>
</g>
<!-- \\Localization&#45;&gt;\\LocalizationAppModel -->
<g id="edge41" class="edge"><title>\\Localization&#45;&gt;\\LocalizationAppModel</title>
<path fill="none" stroke="black" d="M692.706,-1250.15C639.629,-1241.69 554.153,-1228.08 489.772,-1217.82"/>
<polygon fill="none" stroke="black" points="490.055,-1214.32 479.629,-1216.21 488.954,-1221.24 490.055,-1214.32"/>
</g>
<!-- \\AppModel -->
<g id="node54" class="node"><title>\\AppModel</title>
<ellipse fill="none" stroke="black" cx="82" cy="-1204" rx="62.2254" ry="18.3848"/>
<text text-anchor="middle" x="82" y="-1200.4" font-family="Times Roman,serif" font-size="14.00" fill="gray">\AppModel</text>
</g>
<!-- \\LocalizationAppModel&#45;&gt;\\AppModel -->
<g id="edge43" class="edge"><title>\\LocalizationAppModel&#45;&gt;\\AppModel</title>
<path fill="none" stroke="black" d="M326.113,-1204C273.969,-1204 205.489,-1204 154.334,-1204"/>
<polygon fill="none" stroke="black" points="154.019,-1200.5 144.019,-1204 154.019,-1207.5 154.019,-1200.5"/>
</g>
<!-- \\MessageReference -->
<g id="node23" class="node"><title>\\MessageReference</title>
<polygon fill="none" stroke="black" points="804,-1222 680,-1222 680,-1186 804,-1186 804,-1222"/>
<text text-anchor="middle" x="742" y="-1201.1" font-family="Courier,monospace" font-size="11.00">MessageReference</text>
</g>
<!-- \\MessageReference&#45;&gt;\\LocalizationAppModel -->
<g id="edge45" class="edge"><title>\\MessageReference&#45;&gt;\\LocalizationAppModel</title>
<path fill="none" stroke="black" d="M679.427,-1204C626.167,-1204 549.099,-1204 489.861,-1204"/>
<polygon fill="none" stroke="black" points="489.768,-1200.5 479.768,-1204 489.768,-1207.5 489.768,-1200.5"/>
</g>
<!-- \\Message -->
<g id="node24" class="node"><title>\\Message</title>
<polygon fill="none" stroke="black" points="774,-1168 710,-1168 710,-1132 774,-1132 774,-1168"/>
<text text-anchor="middle" x="742" y="-1147.1" font-family="Courier,monospace" font-size="11.00">Message</text>
</g>
<!-- \\Message&#45;&gt;\\LocalizationAppModel -->
<g id="edge47" class="edge"><title>\\Message&#45;&gt;\\LocalizationAppModel</title>
<path fill="none" stroke="black" d="M709.753,-1156.53C675.257,-1163.39 618.896,-1174.24 570,-1182 543.993,-1186.13 515.619,-1190.08 489.762,-1193.46"/>
<polygon fill="none" stroke="black" points="489.077,-1190.02 479.609,-1194.77 489.976,-1196.96 489.077,-1190.02"/>
</g>
<!-- \\Language -->
<g id="node25" class="node"><title>\\Language</title>
<polygon fill="none" stroke="black" points="777,-1114 707,-1114 707,-1078 777,-1078 777,-1114"/>
<text text-anchor="middle" x="742" y="-1093.1" font-family="Courier,monospace" font-size="11.00">Language</text>
</g>
<!-- \\Language&#45;&gt;\\LocalizationAppModel -->
<g id="edge49" class="edge"><title>\\Language&#45;&gt;\\LocalizationAppModel</title>
<path fill="none" stroke="black" d="M706.416,-1101.8C686.689,-1105.93 662.149,-1112.64 642,-1123 605.21,-1141.92 607.964,-1165.56 570,-1182 545.134,-1192.77 516.39,-1198.63 489.832,-1201.71"/>
<polygon fill="none" stroke="black" points="489.355,-1198.24 479.774,-1202.77 490.084,-1205.21 489.355,-1198.24"/>
</g>
</g>
</svg>
