<?xml version="1.0" encoding="UTF-8" standalone="no"?>
<!DOCTYPE svg PUBLIC "-//W3C//DTD SVG 1.1//EN"
 "http://www.w3.org/Graphics/SVG/1.1/DTD/svg11.dtd">
<!-- Generated by graphviz version 2.26.3 (20100126.1600)
 -->
<!-- Title: G Pages: 1 -->
<svg width="838pt" height="998pt"
 viewBox="0.00 0.00 838.00 998.00" xmlns="http://www.w3.org/2000/svg" xmlns:xlink="http://www.w3.org/1999/xlink">
<g id="graph1" class="graph" transform="scale(1 1) rotate(0) translate(4 994)">
<title>G</title>
<polygon fill="white" stroke="white" points="-4,5 -4,-994 835,-994 835,5 -4,5"/>
<g id="graph2" class="cluster"><title>cluster_Global</title>
<polyline fill="none" stroke="gray" points="314,-206 810,-206 "/>
<path fill="none" stroke="gray" d="M810,-206C816,-206 822,-212 822,-218"/>
<polyline fill="none" stroke="gray" points="822,-218 822,-970 "/>
<path fill="none" stroke="gray" d="M822,-970C822,-976 816,-982 810,-982"/>
<polyline fill="none" stroke="gray" points="810,-982 314,-982 "/>
<path fill="none" stroke="gray" d="M314,-982C308,-982 302,-976 302,-970"/>
<polyline fill="none" stroke="gray" points="302,-970 302,-218 "/>
<path fill="none" stroke="gray" d="M302,-218C302,-212 308,-206 314,-206"/>
<text text-anchor="middle" x="562" y="-968.1" font-family="Times Roman,serif" font-size="11.00" fill="gray">Global</text>
</g>
<!-- \\LanguagesController -->
<g id="node2" class="node"><title>\\LanguagesController</title>
<polygon fill="none" stroke="black" points="800,-952 656,-952 656,-916 800,-916 800,-952"/>
<text text-anchor="middle" x="728" y="-931.1" font-family="Courier,monospace" font-size="11.00">LanguagesController</text>
</g>
<!-- \\LocalizationAppController -->
<g id="node5" class="node"><title>\\LocalizationAppController</title>
<polygon fill="none" stroke="black" points="495,-898 311,-898 311,-862 495,-862 495,-898"/>
<text text-anchor="middle" x="403" y="-877.1" font-family="Courier,monospace" font-size="11.00">LocalizationAppController</text>
</g>
<!-- \\LanguagesController&#45;&gt;\\LocalizationAppController -->
<g id="edge3" class="edge"><title>\\LanguagesController&#45;&gt;\\LocalizationAppController</title>
<path fill="none" stroke="black" d="M655.468,-921.949C611.363,-914.62 554.345,-905.147 505.658,-897.057"/>
<polygon fill="none" stroke="black" points="506.159,-893.592 495.721,-895.406 505.012,-900.498 506.159,-893.592"/>
</g>
<!-- \\MessagesController -->
<g id="node3" class="node"><title>\\MessagesController</title>
<polygon fill="none" stroke="black" points="797,-898 659,-898 659,-862 797,-862 797,-898"/>
<text text-anchor="middle" x="728" y="-877.1" font-family="Courier,monospace" font-size="11.00">MessagesController</text>
</g>
<!-- \\MessagesController&#45;&gt;\\LocalizationAppController -->
<g id="edge5" class="edge"><title>\\MessagesController&#45;&gt;\\LocalizationAppController</title>
<path fill="none" stroke="black" d="M658.678,-880C614.204,-880 555.666,-880 505.825,-880"/>
<polygon fill="none" stroke="black" points="505.655,-876.5 495.655,-880 505.655,-883.5 505.655,-876.5"/>
</g>
<!-- \\LocalizationController -->
<g id="node4" class="node"><title>\\LocalizationController</title>
<polygon fill="none" stroke="black" points="810,-844 646,-844 646,-808 810,-808 810,-844"/>
<text text-anchor="middle" x="728" y="-823.1" font-family="Courier,monospace" font-size="11.00">LocalizationController</text>
</g>
<!-- \\LocalizationController&#45;&gt;\\LocalizationAppController -->
<g id="edge7" class="edge"><title>\\LocalizationController&#45;&gt;\\LocalizationAppController</title>
<path fill="none" stroke="black" d="M645.148,-839.766C602.749,-846.811 550.739,-855.453 505.802,-862.919"/>
<polygon fill="none" stroke="black" points="505.026,-859.5 495.735,-864.592 506.174,-866.405 505.026,-859.5"/>
</g>
<!-- \\AppController -->
<g id="node22" class="node"><title>\\AppController</title>
<ellipse fill="none" stroke="black" cx="82" cy="-880" rx="82.0244" ry="18.3848"/>
<text text-anchor="middle" x="82" y="-876.4" font-family="Times Roman,serif" font-size="14.00" fill="gray">\AppController</text>
</g>
<!-- \\LocalizationAppController&#45;&gt;\\AppController -->
<g id="edge9" class="edge"><title>\\LocalizationAppController&#45;&gt;\\AppController</title>
<path fill="none" stroke="black" d="M310.153,-880C267.47,-880 216.972,-880 174.35,-880"/>
<polygon fill="none" stroke="black" points="174.258,-876.5 164.258,-880 174.258,-883.5 174.258,-876.5"/>
</g>
<!-- \\TranslationFixture -->
<g id="node6" class="node"><title>\\TranslationFixture</title>
<polygon fill="none" stroke="black" points="797,-628 659,-628 659,-592 797,-592 797,-628"/>
<text text-anchor="middle" x="728" y="-607.1" font-family="Courier,monospace" font-size="11.00">TranslationFixture</text>
</g>
<!-- \\CakeTestFixture -->
<g id="node24" class="node"><title>\\CakeTestFixture</title>
<ellipse fill="none" stroke="black" cx="403" cy="-180" rx="92.1303" ry="18.3848"/>
<text text-anchor="middle" x="403" y="-176.4" font-family="Times Roman,serif" font-size="14.00" fill="gray">\CakeTestFixture</text>
</g>
<!-- \\TranslationFixture&#45;&gt;\\CakeTestFixture -->
<g id="edge11" class="edge"><title>\\TranslationFixture&#45;&gt;\\CakeTestFixture</title>
<path fill="none" stroke="black" d="M658.987,-596.163C652.623,-592.698 646.783,-588.38 642,-583 527.505,-454.203 695.207,-320.41 570,-202 550.312,-183.381 522.997,-175.358 496.156,-172.7"/>
<polygon fill="none" stroke="black" points="496.142,-169.19 485.909,-171.934 495.619,-176.17 496.142,-169.19"/>
</g>
<!-- \\MessageFixture -->
<g id="node7" class="node"><title>\\MessageFixture</title>
<polygon fill="none" stroke="black" points="783,-574 673,-574 673,-538 783,-538 783,-574"/>
<text text-anchor="middle" x="728" y="-553.1" font-family="Courier,monospace" font-size="11.00">MessageFixture</text>
</g>
<!-- \\MessageFixture&#45;&gt;\\CakeTestFixture -->
<g id="edge13" class="edge"><title>\\MessageFixture&#45;&gt;\\CakeTestFixture</title>
<path fill="none" stroke="black" d="M672.154,-547.733C660.877,-543.712 650.034,-537.77 642,-529 541.474,-419.271 679.641,-302.621 570,-202 550.322,-183.941 523.429,-175.967 496.973,-173.181"/>
<polygon fill="none" stroke="black" points="497.123,-169.682 486.871,-172.358 496.554,-176.659 497.123,-169.682"/>
</g>
<!-- \\LanguageFixture -->
<g id="node8" class="node"><title>\\LanguageFixture</title>
<polygon fill="none" stroke="black" points="787,-520 669,-520 669,-484 787,-484 787,-520"/>
<text text-anchor="middle" x="728" y="-499.1" font-family="Courier,monospace" font-size="11.00">LanguageFixture</text>
</g>
<!-- \\LanguageFixture&#45;&gt;\\CakeTestFixture -->
<g id="edge15" class="edge"><title>\\LanguageFixture&#45;&gt;\\CakeTestFixture</title>
<path fill="none" stroke="black" d="M668.869,-492.156C658.861,-488.21 649.348,-482.697 642,-475 555.35,-384.239 664.176,-284.925 570,-202 550.431,-184.768 524.234,-176.871 498.401,-173.897"/>
<polygon fill="none" stroke="black" points="498.426,-170.385 488.149,-172.962 497.79,-177.356 498.426,-170.385"/>
</g>
<!-- \\AllLocalizationTest -->
<g id="node9" class="node"><title>\\AllLocalizationTest</title>
<polygon fill="none" stroke="black" points="800,-466 656,-466 656,-430 800,-430 800,-466"/>
<text text-anchor="middle" x="728" y="-445.1" font-family="Courier,monospace" font-size="11.00">AllLocalizationTest</text>
</g>
<!-- \\PHPUnit_Framework_TestSuite -->
<g id="node28" class="node"><title>\\PHPUnit_Framework_TestSuite</title>
<ellipse fill="none" stroke="black" cx="403" cy="-126" rx="166.877" ry="18.3848"/>
<text text-anchor="middle" x="403" y="-122.4" font-family="Times Roman,serif" font-size="14.00" fill="gray">\PHPUnit_Framework_TestSuite</text>
</g>
<!-- \\AllLocalizationTest&#45;&gt;\\PHPUnit_Framework_TestSuite -->
<g id="edge17" class="edge"><title>\\AllLocalizationTest&#45;&gt;\\PHPUnit_Framework_TestSuite</title>
<path fill="none" stroke="black" d="M655.264,-431.46C650.403,-428.522 645.9,-425.066 642,-421 556.629,-331.988 661.55,-235.644 570,-153 564.727,-148.24 558.96,-144.138 552.838,-140.613"/>
<polygon fill="none" stroke="black" points="554.123,-137.337 543.633,-135.852 550.907,-143.555 554.123,-137.337"/>
</g>
<!-- \\LanguagesControllerTest -->
<g id="node10" class="node"><title>\\LanguagesControllerTest</title>
<polygon fill="none" stroke="black" points="814,-412 642,-412 642,-376 814,-376 814,-412"/>
<text text-anchor="middle" x="728" y="-391.1" font-family="Courier,monospace" font-size="11.00">LanguagesControllerTest</text>
</g>
<!-- \\ControllerTestCase -->
<g id="node30" class="node"><title>\\ControllerTestCase</title>
<ellipse fill="none" stroke="black" cx="403" cy="-72" rx="106.773" ry="18.3848"/>
<text text-anchor="middle" x="403" y="-68.4" font-family="Times Roman,serif" font-size="14.00" fill="gray">\ControllerTestCase</text>
</g>
<!-- \\LanguagesControllerTest&#45;&gt;\\ControllerTestCase -->
<g id="edge19" class="edge"><title>\\LanguagesControllerTest&#45;&gt;\\ControllerTestCase</title>
<path fill="none" stroke="black" d="M652.864,-375.947C648.919,-373.353 645.25,-370.388 642,-367 556.629,-277.988 661.55,-181.644 570,-99 555.956,-86.3219 538.404,-78.3148 520,-73.4306"/>
<polygon fill="none" stroke="black" points="520.545,-69.9635 510.01,-71.0909 518.948,-76.7791 520.545,-69.9635"/>
</g>
<!-- \\MessagesControllerTest -->
<g id="node11" class="node"><title>\\MessagesControllerTest</title>
<polygon fill="none" stroke="black" points="810,-358 646,-358 646,-322 810,-322 810,-358"/>
<text text-anchor="middle" x="728" y="-337.1" font-family="Courier,monospace" font-size="11.00">MessagesControllerTest</text>
</g>
<!-- \\MessagesControllerTest&#45;&gt;\\ControllerTestCase -->
<g id="edge21" class="edge"><title>\\MessagesControllerTest&#45;&gt;\\ControllerTestCase</title>
<path fill="none" stroke="black" d="M653.508,-321.96C649.352,-319.364 645.465,-316.395 642,-313 570.324,-242.767 646.54,-163.898 570,-99 555.759,-86.9249 538.292,-79.1821 520.079,-74.3645"/>
<polygon fill="none" stroke="black" points="520.737,-70.9239 510.202,-72.0423 519.135,-77.7381 520.737,-70.9239"/>
</g>
<!-- \\LanguageTest -->
<g id="node12" class="node"><title>\\LanguageTest</title>
<polygon fill="none" stroke="black" points="777,-304 679,-304 679,-268 777,-268 777,-304"/>
<text text-anchor="middle" x="728" y="-283.1" font-family="Courier,monospace" font-size="11.00">LanguageTest</text>
</g>
<!-- \\CakeTestCase -->
<g id="node33" class="node"><title>\\CakeTestCase</title>
<ellipse fill="none" stroke="black" cx="403" cy="-18" rx="82.0244" ry="18.3848"/>
<text text-anchor="middle" x="403" y="-14.4" font-family="Times Roman,serif" font-size="14.00" fill="gray">\CakeTestCase</text>
</g>
<!-- \\LanguageTest&#45;&gt;\\CakeTestCase -->
<g id="edge23" class="edge"><title>\\LanguageTest&#45;&gt;\\CakeTestCase</title>
<path fill="none" stroke="black" d="M678.656,-278.965C665.373,-274.981 651.948,-268.748 642,-259 570.324,-188.767 646.54,-109.898 570,-45 548.852,-27.0688 520.591,-18.6909 493.338,-15.2588"/>
<polygon fill="none" stroke="black" points="493.67,-11.7744 483.359,-14.2096 492.938,-18.7361 493.67,-11.7744"/>
</g>
<!-- \\MessageTest -->
<g id="node13" class="node"><title>\\MessageTest</title>
<polygon fill="none" stroke="black" points="773,-250 683,-250 683,-214 773,-214 773,-250"/>
<text text-anchor="middle" x="728" y="-229.1" font-family="Courier,monospace" font-size="11.00">MessageTest</text>
</g>
<!-- \\MessageTest&#45;&gt;\\CakeTestCase -->
<g id="edge25" class="edge"><title>\\MessageTest&#45;&gt;\\CakeTestCase</title>
<path fill="none" stroke="black" d="M718.624,-213.933C697.707,-175.638 643.248,-86.4323 570,-45 547.432,-32.2347 520.57,-25.0628 495.058,-21.1445"/>
<polygon fill="none" stroke="black" points="495.369,-17.6542 484.983,-19.7507 494.409,-24.5882 495.369,-17.6542"/>
</g>
<!-- \\Language -->
<g id="node14" class="node"><title>\\Language</title>
<polygon fill="none" stroke="black" points="763,-790 693,-790 693,-754 763,-754 763,-790"/>
<text text-anchor="middle" x="728" y="-769.1" font-family="Courier,monospace" font-size="11.00">Language</text>
</g>
<!-- \\LocalizationAppModel -->
<g id="node15" class="node"><title>\\LocalizationAppModel</title>
<polygon fill="none" stroke="black" points="479,-736 327,-736 327,-700 479,-700 479,-736"/>
<text text-anchor="start" x="369" y="-723.433" font-family="Courier,monospace" font-size="11.00">«abstract»</text>
<text text-anchor="start" x="335" y="-710.233" font-family="Courier,monospace" font-size="11.00">LocalizationAppModel</text>
</g>
<!-- \\Language&#45;&gt;\\LocalizationAppModel -->
<g id="edge27" class="edge"><title>\\Language&#45;&gt;\\LocalizationAppModel</title>
<path fill="none" stroke="black" d="M692.29,-766.067C643.903,-758.027 555.958,-743.415 489.691,-732.404"/>
<polygon fill="none" stroke="black" points="490.103,-728.925 479.665,-730.738 488.956,-735.83 490.103,-728.925"/>
</g>
<!-- \\AppModel -->
<g id="node37" class="node"><title>\\AppModel</title>
<ellipse fill="none" stroke="black" cx="82" cy="-718" rx="62.2254" ry="18.3848"/>
<text text-anchor="middle" x="82" y="-714.4" font-family="Times Roman,serif" font-size="14.00" fill="gray">\AppModel</text>
</g>
<!-- \\LocalizationAppModel&#45;&gt;\\AppModel -->
<g id="edge29" class="edge"><title>\\LocalizationAppModel&#45;&gt;\\AppModel</title>
<path fill="none" stroke="black" d="M326.113,-718C273.969,-718 205.489,-718 154.334,-718"/>
<polygon fill="none" stroke="black" points="154.019,-714.5 144.019,-718 154.019,-721.5 154.019,-714.5"/>
</g>
<!-- \\Message -->
<g id="node16" class="node"><title>\\Message</title>
<polygon fill="none" stroke="black" points="760,-736 696,-736 696,-700 760,-700 760,-736"/>
<text text-anchor="middle" x="728" y="-715.1" font-family="Courier,monospace" font-size="11.00">Message</text>
</g>
<!-- \\Message&#45;&gt;\\LocalizationAppModel -->
<g id="edge31" class="edge"><title>\\Message&#45;&gt;\\LocalizationAppModel</title>
<path fill="none" stroke="black" d="M695.948,-718C648.5,-718 557.864,-718 489.914,-718"/>
<polygon fill="none" stroke="black" points="489.638,-714.5 479.638,-718 489.638,-721.5 489.638,-714.5"/>
</g>
<!-- \\Translation -->
<g id="node17" class="node"><title>\\Translation</title>
<polygon fill="none" stroke="black" points="773,-682 683,-682 683,-646 773,-646 773,-682"/>
<text text-anchor="middle" x="728" y="-661.1" font-family="Courier,monospace" font-size="11.00">Translation</text>
</g>
<!-- \\Translation&#45;&gt;\\LocalizationAppModel -->
<g id="edge33" class="edge"><title>\\Translation&#45;&gt;\\LocalizationAppModel</title>
<path fill="none" stroke="black" d="M682.178,-674.149C650.721,-680.902 607.958,-689.664 570,-696 544.026,-700.336 515.663,-704.343 489.805,-707.717"/>
<polygon fill="none" stroke="black" points="489.121,-704.276 479.651,-709.026 490.016,-711.219 489.121,-704.276"/>
</g>
</g>
</svg>
