<?xml version="1.0" encoding="UTF-8" standalone="no"?>
<!DOCTYPE svg PUBLIC "-//W3C//DTD SVG 1.1//EN"
 "http://www.w3.org/Graphics/SVG/1.1/DTD/svg11.dtd">
<!-- Generated by graphviz version 2.26.3 (20100126.1600)
 -->
<!-- Title: G Pages: 1 -->
<svg width="866pt" height="1376pt"
 viewBox="0.00 0.00 866.00 1376.00" xmlns="http://www.w3.org/2000/svg" xmlns:xlink="http://www.w3.org/1999/xlink">
<g id="graph1" class="graph" transform="scale(1 1) rotate(0) translate(4 1372)">
<title>G</title>
<polygon fill="white" stroke="white" points="-4,5 -4,-1372 863,-1372 863,5 -4,5"/>
<g id="graph2" class="cluster"><title>cluster_Global</title>
<polyline fill="none" stroke="gray" points="314,-314 838,-314 "/>
<path fill="none" stroke="gray" d="M838,-314C844,-314 850,-320 850,-326"/>
<polyline fill="none" stroke="gray" points="850,-326 850,-1348 "/>
<path fill="none" stroke="gray" d="M850,-1348C850,-1354 844,-1360 838,-1360"/>
<polyline fill="none" stroke="gray" points="838,-1360 314,-1360 "/>
<path fill="none" stroke="gray" d="M314,-1360C308,-1360 302,-1354 302,-1348"/>
<polyline fill="none" stroke="gray" points="302,-1348 302,-326 "/>
<path fill="none" stroke="gray" d="M302,-326C302,-320 308,-314 314,-314"/>
<text text-anchor="middle" x="576" y="-1346.1" font-family="Times Roman,serif" font-size="11.00" fill="gray">Global</text>
</g>
<!-- \\AllLocalizationTest -->
<g id="node2" class="node"><title>\\AllLocalizationTest</title>
<polygon fill="none" stroke="black" points="814,-952 670,-952 670,-916 814,-916 814,-952"/>
<text text-anchor="middle" x="742" y="-931.1" font-family="Courier,monospace" font-size="11.00">AllLocalizationTest</text>
</g>
<!-- \\PHPUnit_Framework_TestSuite -->
<g id="node24" class="node"><title>\\PHPUnit_Framework_TestSuite</title>
<ellipse fill="none" stroke="black" cx="403" cy="-288" rx="166.877" ry="18.3848"/>
<text text-anchor="middle" x="403" y="-284.4" font-family="Times Roman,serif" font-size="14.00" fill="gray">\PHPUnit_Framework_TestSuite</text>
</g>
<!-- \\AllLocalizationTest&#45;&gt;\\PHPUnit_Framework_TestSuite -->
<g id="edge3" class="edge"><title>\\AllLocalizationTest&#45;&gt;\\PHPUnit_Framework_TestSuite</title>
<path fill="none" stroke="black" d="M669.328,-925.506C658.926,-921.359 649.298,-915.429 642,-907 467.074,-704.944 757.94,-500.011 570,-310 567.076,-307.044 563.962,-304.348 560.687,-301.893"/>
<polygon fill="none" stroke="black" points="562.5,-298.896 552.234,-296.275 558.625,-304.725 562.5,-298.896"/>
</g>
<!-- \\MessageTest -->
<g id="node3" class="node"><title>\\MessageTest</title>
<polygon fill="none" stroke="black" points="787,-898 697,-898 697,-862 787,-862 787,-898"/>
<text text-anchor="middle" x="742" y="-877.1" font-family="Courier,monospace" font-size="11.00">MessageTest</text>
</g>
<!-- \\CakeTestCase -->
<g id="node26" class="node"><title>\\CakeTestCase</title>
<ellipse fill="none" stroke="black" cx="403" cy="-234" rx="82.0244" ry="18.3848"/>
<text text-anchor="middle" x="403" y="-230.4" font-family="Times Roman,serif" font-size="14.00" fill="gray">\CakeTestCase</text>
</g>
<!-- \\MessageTest&#45;&gt;\\CakeTestCase -->
<g id="edge5" class="edge"><title>\\MessageTest&#45;&gt;\\CakeTestCase</title>
<path fill="none" stroke="black" d="M696.478,-878.634C676.912,-875.603 655.485,-868.56 642,-853 468.418,-652.699 753.703,-452.061 570,-261 549.424,-239.6 519.06,-230.89 489.846,-228.185"/>
<polygon fill="none" stroke="black" points="489.798,-224.673 479.579,-227.468 489.311,-231.656 489.798,-224.673"/>
</g>
<!-- \\LanguageTest -->
<g id="node4" class="node"><title>\\LanguageTest</title>
<polygon fill="none" stroke="black" points="791,-844 693,-844 693,-808 791,-808 791,-844"/>
<text text-anchor="middle" x="742" y="-823.1" font-family="Courier,monospace" font-size="11.00">LanguageTest</text>
</g>
<!-- \\LanguageTest&#45;&gt;\\CakeTestCase -->
<g id="edge7" class="edge"><title>\\LanguageTest&#45;&gt;\\CakeTestCase</title>
<path fill="none" stroke="black" d="M692.96,-823.955C674.423,-820.621 654.748,-813.533 642,-799 482.917,-617.642 738.244,-433.893 570,-261 549.387,-239.818 519.174,-231.117 490.093,-228.358"/>
<polygon fill="none" stroke="black" points="490.098,-224.849 479.872,-227.619 489.593,-231.831 490.098,-224.849"/>
</g>
<!-- \\LocalizationExtractTaskTest -->
<g id="node5" class="node"><title>\\LocalizationExtractTaskTest</title>
<polygon fill="none" stroke="black" points="841,-790 643,-790 643,-754 841,-754 841,-790"/>
<text text-anchor="middle" x="742" y="-769.1" font-family="Courier,monospace" font-size="11.00">LocalizationExtractTaskTest</text>
</g>
<!-- \\LocalizationExtractTaskTest&#45;&gt;\\CakeTestCase -->
<g id="edge9" class="edge"><title>\\LocalizationExtractTaskTest&#45;&gt;\\CakeTestCase</title>
<path fill="none" stroke="black" d="M651.977,-753.924C648.348,-751.317 644.989,-748.358 642,-745 497.395,-582.561 722.808,-415.747 570,-261 549.325,-240.063 519.255,-231.378 490.31,-228.563"/>
<polygon fill="none" stroke="black" points="490.369,-225.057 480.136,-227.801 489.847,-232.038 490.369,-225.057"/>
</g>
<!-- \\LanguagesControllerTest -->
<g id="node6" class="node"><title>\\LanguagesControllerTest</title>
<polygon fill="none" stroke="black" points="828,-736 656,-736 656,-700 828,-700 828,-736"/>
<text text-anchor="middle" x="742" y="-715.1" font-family="Courier,monospace" font-size="11.00">LanguagesControllerTest</text>
</g>
<!-- \\ControllerTestCase -->
<g id="node30" class="node"><title>\\ControllerTestCase</title>
<ellipse fill="none" stroke="black" cx="403" cy="-180" rx="106.773" ry="18.3848"/>
<text text-anchor="middle" x="403" y="-176.4" font-family="Times Roman,serif" font-size="14.00" fill="gray">\ControllerTestCase</text>
</g>
<!-- \\LanguagesControllerTest&#45;&gt;\\ControllerTestCase -->
<g id="edge11" class="edge"><title>\\LanguagesControllerTest&#45;&gt;\\ControllerTestCase</title>
<path fill="none" stroke="black" d="M655.995,-702.605C650.815,-699.397 646.065,-695.567 642,-691 497.395,-528.561 722.808,-361.747 570,-207 556.054,-192.877 537.832,-184.329 518.565,-179.396"/>
<polygon fill="none" stroke="black" points="519.248,-175.963 508.725,-177.197 517.721,-182.794 519.248,-175.963"/>
</g>
<!-- \\MessagesControllerTest -->
<g id="node7" class="node"><title>\\MessagesControllerTest</title>
<polygon fill="none" stroke="black" points="824,-682 660,-682 660,-646 824,-646 824,-682"/>
<text text-anchor="middle" x="742" y="-661.1" font-family="Courier,monospace" font-size="11.00">MessagesControllerTest</text>
</g>
<!-- \\MessagesControllerTest&#45;&gt;\\ControllerTestCase -->
<g id="edge13" class="edge"><title>\\MessagesControllerTest&#45;&gt;\\ControllerTestCase</title>
<path fill="none" stroke="black" d="M659.353,-650.414C652.883,-646.867 646.952,-642.462 642,-637 511.845,-493.448 707.401,-343.632 570,-207 556.167,-193.245 538.27,-184.81 519.349,-179.86"/>
<polygon fill="none" stroke="black" points="519.906,-176.397 509.377,-177.58 518.345,-183.221 519.906,-176.397"/>
</g>
<!-- \\MessageFixture -->
<g id="node8" class="node"><title>\\MessageFixture</title>
<polygon fill="none" stroke="black" points="797,-628 687,-628 687,-592 797,-592 797,-628"/>
<text text-anchor="middle" x="742" y="-607.1" font-family="Courier,monospace" font-size="11.00">MessageFixture</text>
</g>
<!-- \\CakeTestFixture -->
<g id="node33" class="node"><title>\\CakeTestFixture</title>
<ellipse fill="none" stroke="black" cx="403" cy="-126" rx="92.1303" ry="18.3848"/>
<text text-anchor="middle" x="403" y="-122.4" font-family="Times Roman,serif" font-size="14.00" fill="gray">\CakeTestFixture</text>
</g>
<!-- \\MessageFixture&#45;&gt;\\CakeTestFixture -->
<g id="edge15" class="edge"><title>\\MessageFixture&#45;&gt;\\CakeTestFixture</title>
<path fill="none" stroke="black" d="M686.448,-606.352C670.028,-602.563 653.415,-595.589 642,-583 511.845,-439.448 707.401,-289.632 570,-153 551.983,-135.083 527.07,-126.193 501.98,-122.274"/>
<polygon fill="none" stroke="black" points="502.365,-118.795 491.995,-120.967 501.456,-125.736 502.365,-118.795"/>
</g>
<!-- \\LanguageFixture -->
<g id="node9" class="node"><title>\\LanguageFixture</title>
<polygon fill="none" stroke="black" points="801,-574 683,-574 683,-538 801,-538 801,-574"/>
<text text-anchor="middle" x="742" y="-553.1" font-family="Courier,monospace" font-size="11.00">LanguageFixture</text>
</g>
<!-- \\LanguageFixture&#45;&gt;\\CakeTestFixture -->
<g id="edge17" class="edge"><title>\\LanguageFixture&#45;&gt;\\CakeTestFixture</title>
<path fill="none" stroke="black" d="M682.974,-551.296C667.774,-547.336 652.704,-540.533 642,-529 526.253,-404.29 692.039,-271.561 570,-153 552.041,-135.553 527.522,-126.732 502.805,-122.726"/>
<polygon fill="none" stroke="black" points="502.975,-119.217 492.594,-121.335 502.03,-126.153 502.975,-119.217"/>
</g>
<!-- \\TranslationFixture -->
<g id="node10" class="node"><title>\\TranslationFixture</title>
<polygon fill="none" stroke="black" points="811,-520 673,-520 673,-484 811,-484 811,-520"/>
<text text-anchor="middle" x="742" y="-499.1" font-family="Courier,monospace" font-size="11.00">TranslationFixture</text>
</g>
<!-- \\TranslationFixture&#45;&gt;\\CakeTestFixture -->
<g id="edge19" class="edge"><title>\\TranslationFixture&#45;&gt;\\CakeTestFixture</title>
<path fill="none" stroke="black" d="M672.843,-493.904C661.313,-489.79 650.393,-483.769 642,-475 540.598,-369.064 676.742,-253.553 570,-153 551.962,-136.008 527.674,-127.284 503.214,-123.224"/>
<polygon fill="none" stroke="black" points="503.5,-119.729 493.11,-121.801 502.525,-126.661 503.5,-119.729"/>
</g>
<!-- \\MessageReferenceFixture -->
<g id="node11" class="node"><title>\\MessageReferenceFixture</title>
<polygon fill="none" stroke="black" points="828,-466 656,-466 656,-430 828,-430 828,-466"/>
<text text-anchor="middle" x="742" y="-445.1" font-family="Courier,monospace" font-size="11.00">MessageReferenceFixture</text>
</g>
<!-- \\MessageReferenceFixture&#45;&gt;\\CakeTestFixture -->
<g id="edge21" class="edge"><title>\\MessageReferenceFixture&#45;&gt;\\CakeTestFixture</title>
<path fill="none" stroke="black" d="M655.637,-431.512C650.679,-428.547 646.066,-425.072 642,-421 554.844,-333.735 661.55,-235.644 570,-153 551.893,-136.655 527.957,-128.073 503.879,-123.939"/>
<polygon fill="none" stroke="black" points="504.338,-120.469 493.934,-122.474 503.318,-127.394 504.338,-120.469"/>
</g>
<!-- \\Language -->
<g id="node12" class="node"><title>\\Language</title>
<polygon fill="none" stroke="black" points="777,-1330 707,-1330 707,-1294 777,-1294 777,-1330"/>
<text text-anchor="middle" x="742" y="-1309.1" font-family="Courier,monospace" font-size="11.00">Language</text>
</g>
<!-- \\LocalizationAppModel -->
<g id="node13" class="node"><title>\\LocalizationAppModel</title>
<polygon fill="none" stroke="black" points="479,-1249 327,-1249 327,-1213 479,-1213 479,-1249"/>
<text text-anchor="start" x="369" y="-1236.43" font-family="Courier,monospace" font-size="11.00">«abstract»</text>
<text text-anchor="start" x="335" y="-1223.23" font-family="Courier,monospace" font-size="11.00">LocalizationAppModel</text>
</g>
<!-- \\Language&#45;&gt;\\LocalizationAppModel -->
<g id="edge23" class="edge"><title>\\Language&#45;&gt;\\LocalizationAppModel</title>
<path fill="none" stroke="black" d="M706.362,-1303.48C654.976,-1291.21 558.524,-1268.16 488.131,-1251.34"/>
<polygon fill="none" stroke="black" points="488.919,-1247.93 478.379,-1249.01 487.292,-1254.74 488.919,-1247.93"/>
</g>
<!-- \\AppModel -->
<g id="node39" class="node"><title>\\AppModel</title>
<ellipse fill="none" stroke="black" cx="82" cy="-1231" rx="62.2254" ry="18.3848"/>
<text text-anchor="middle" x="82" y="-1227.4" font-family="Times Roman,serif" font-size="14.00" fill="gray">\AppModel</text>
</g>
<!-- \\LocalizationAppModel&#45;&gt;\\AppModel -->
<g id="edge25" class="edge"><title>\\LocalizationAppModel&#45;&gt;\\AppModel</title>
<path fill="none" stroke="black" d="M326.113,-1231C273.969,-1231 205.489,-1231 154.334,-1231"/>
<polygon fill="none" stroke="black" points="154.019,-1227.5 144.019,-1231 154.019,-1234.5 154.019,-1227.5"/>
</g>
<!-- \\Message -->
<g id="node14" class="node"><title>\\Message</title>
<polygon fill="none" stroke="black" points="774,-1276 710,-1276 710,-1240 774,-1240 774,-1276"/>
<text text-anchor="middle" x="742" y="-1255.1" font-family="Courier,monospace" font-size="11.00">Message</text>
</g>
<!-- \\Message&#45;&gt;\\LocalizationAppModel -->
<g id="edge27" class="edge"><title>\\Message&#45;&gt;\\LocalizationAppModel</title>
<path fill="none" stroke="black" d="M709.802,-1255.44C659.866,-1251.46 562.026,-1243.67 490.209,-1237.95"/>
<polygon fill="none" stroke="black" points="490.057,-1234.42 479.811,-1237.12 489.501,-1241.4 490.057,-1234.42"/>
</g>
<!-- \\Translation -->
<g id="node15" class="node"><title>\\Translation</title>
<polygon fill="none" stroke="black" points="787,-1222 697,-1222 697,-1186 787,-1186 787,-1222"/>
<text text-anchor="middle" x="742" y="-1201.1" font-family="Courier,monospace" font-size="11.00">Translation</text>
</g>
<!-- \\Translation&#45;&gt;\\LocalizationAppModel -->
<g id="edge29" class="edge"><title>\\Translation&#45;&gt;\\LocalizationAppModel</title>
<path fill="none" stroke="black" d="M696.281,-1207.64C643.615,-1211.84 555.893,-1218.82 490.081,-1224.06"/>
<polygon fill="none" stroke="black" points="489.406,-1220.61 479.716,-1224.89 489.962,-1227.58 489.406,-1220.61"/>
</g>
<!-- \\MessageReference -->
<g id="node16" class="node"><title>\\MessageReference</title>
<polygon fill="none" stroke="black" points="804,-1168 680,-1168 680,-1132 804,-1132 804,-1168"/>
<text text-anchor="middle" x="742" y="-1147.1" font-family="Courier,monospace" font-size="11.00">MessageReference</text>
</g>
<!-- \\MessageReference&#45;&gt;\\LocalizationAppModel -->
<g id="edge31" class="edge"><title>\\MessageReference&#45;&gt;\\LocalizationAppModel</title>
<path fill="none" stroke="black" d="M679.427,-1164.95C625.694,-1177.79 547.73,-1196.42 488.289,-1210.62"/>
<polygon fill="none" stroke="black" points="487.454,-1207.22 478.541,-1212.95 489.081,-1214.03 487.454,-1207.22"/>
</g>
<!-- \\MessagesShell -->
<g id="node17" class="node"><title>\\MessagesShell</title>
<polygon fill="none" stroke="black" points="794,-412 690,-412 690,-376 794,-376 794,-412"/>
<text text-anchor="middle" x="742" y="-391.1" font-family="Courier,monospace" font-size="11.00">MessagesShell</text>
</g>
<!-- \\AppShell -->
<g id="node44" class="node"><title>\\AppShell</title>
<ellipse fill="none" stroke="black" cx="403" cy="-72" rx="56.7776" ry="18.3848"/>
<text text-anchor="middle" x="403" y="-68.4" font-family="Times Roman,serif" font-size="14.00" fill="gray">\AppShell</text>
</g>
<!-- \\MessagesShell&#45;&gt;\\AppShell -->
<g id="edge33" class="edge"><title>\\MessagesShell&#45;&gt;\\AppShell</title>
<path fill="none" stroke="black" d="M689.753,-390.26C672.566,-386.558 654.644,-379.66 642,-367 554.844,-279.735 661.55,-181.644 570,-99 542.834,-74.477 502.547,-67.4303 468.349,-66.6568"/>
<polygon fill="none" stroke="black" points="467.97,-63.155 457.952,-66.6057 467.935,-70.1549 467.97,-63.155"/>
</g>
<!-- \\LocalizationExtractTask -->
<g id="node18" class="node"><title>\\LocalizationExtractTask</title>
<polygon fill="none" stroke="black" points="828,-358 656,-358 656,-322 828,-322 828,-358"/>
<text text-anchor="middle" x="742" y="-337.1" font-family="Courier,monospace" font-size="11.00">LocalizationExtractTask</text>
</g>
<!-- \\ExtractTask -->
<g id="node46" class="node"><title>\\ExtractTask</title>
<ellipse fill="none" stroke="black" cx="403" cy="-18" rx="70.9184" ry="18.3848"/>
<text text-anchor="middle" x="403" y="-14.4" font-family="Times Roman,serif" font-size="14.00" fill="gray">\ExtractTask</text>
</g>
<!-- \\LocalizationExtractTask&#45;&gt;\\ExtractTask -->
<g id="edge35" class="edge"><title>\\LocalizationExtractTask&#45;&gt;\\ExtractTask</title>
<path fill="none" stroke="black" d="M737.277,-321.674C722.627,-268.832 672.639,-115.462 570,-45 545.2,-27.9748 513.512,-20.2509 484.418,-17.1108"/>
<polygon fill="none" stroke="black" points="484.527,-13.6064 474.251,-16.1836 483.892,-20.5774 484.527,-13.6064"/>
</g>
<!-- \\MessagesController -->
<g id="node19" class="node"><title>\\MessagesController</title>
<polygon fill="none" stroke="black" points="811,-1114 673,-1114 673,-1078 811,-1078 811,-1114"/>
<text text-anchor="middle" x="742" y="-1093.1" font-family="Courier,monospace" font-size="11.00">MessagesController</text>
</g>
<!-- \\LocalizationAppController -->
<g id="node21" class="node"><title>\\LocalizationAppController</title>
<polygon fill="none" stroke="black" points="495,-1060 311,-1060 311,-1024 495,-1024 495,-1060"/>
<text text-anchor="middle" x="403" y="-1039.1" font-family="Courier,monospace" font-size="11.00">LocalizationAppController</text>
</g>
<!-- \\MessagesController&#45;&gt;\\LocalizationAppController -->
<g id="edge37" class="edge"><title>\\MessagesController&#45;&gt;\\LocalizationAppController</title>
<path fill="none" stroke="black" d="M672.99,-1085.01C624.876,-1077.34 559.856,-1066.99 505.68,-1058.36"/>
<polygon fill="none" stroke="black" points="506.122,-1054.88 495.696,-1056.77 505.021,-1061.8 506.122,-1054.88"/>
</g>
<!-- \\LocalizationController -->
<g id="node20" class="node"><title>\\LocalizationController</title>
<polygon fill="none" stroke="black" points="824,-1060 660,-1060 660,-1024 824,-1024 824,-1060"/>
<text text-anchor="middle" x="742" y="-1039.1" font-family="Courier,monospace" font-size="11.00">LocalizationController</text>
</g>
<!-- \\LocalizationController&#45;&gt;\\LocalizationAppController -->
<g id="edge39" class="edge"><title>\\LocalizationController&#45;&gt;\\LocalizationAppController</title>
<path fill="none" stroke="black" d="M659.071,-1042C612.767,-1042 554.681,-1042 505.541,-1042"/>
<polygon fill="none" stroke="black" points="505.519,-1038.5 495.519,-1042 505.519,-1045.5 505.519,-1038.5"/>
</g>
<!-- \\AppController -->
<g id="node50" class="node"><title>\\AppController</title>
<ellipse fill="none" stroke="black" cx="82" cy="-1042" rx="82.0244" ry="18.3848"/>
<text text-anchor="middle" x="82" y="-1038.4" font-family="Times Roman,serif" font-size="14.00" fill="gray">\AppController</text>
</g>
<!-- \\LocalizationAppController&#45;&gt;\\AppController -->
<g id="edge41" class="edge"><title>\\LocalizationAppController&#45;&gt;\\AppController</title>
<path fill="none" stroke="black" d="M310.153,-1042C267.47,-1042 216.972,-1042 174.35,-1042"/>
<polygon fill="none" stroke="black" points="174.258,-1038.5 164.258,-1042 174.258,-1045.5 174.258,-1038.5"/>
</g>
<!-- \\LanguagesController -->
<g id="node22" class="node"><title>\\LanguagesController</title>
<polygon fill="none" stroke="black" points="814,-1006 670,-1006 670,-970 814,-970 814,-1006"/>
<text text-anchor="middle" x="742" y="-985.1" font-family="Courier,monospace" font-size="11.00">LanguagesController</text>
</g>
<!-- \\LanguagesController&#45;&gt;\\LocalizationAppController -->
<g id="edge43" class="edge"><title>\\LanguagesController&#45;&gt;\\LocalizationAppController</title>
<path fill="none" stroke="black" d="M669.336,-1002.4C638.733,-1008.24 602.698,-1014.81 570,-1020 549.306,-1023.29 527.113,-1026.46 505.882,-1029.32"/>
<polygon fill="none" stroke="black" points="505.326,-1025.86 495.877,-1030.65 506.252,-1032.8 505.326,-1025.86"/>
</g>
</g>
</svg>
