<?xml version="1.0" encoding="UTF-8" standalone="no"?>
<!DOCTYPE svg PUBLIC "-//W3C//DTD SVG 1.1//EN"
 "http://www.w3.org/Graphics/SVG/1.1/DTD/svg11.dtd">
<!-- Generated by graphviz version 2.26.3 (20100126.1600)
 -->
<!-- Title: G Pages: 1 -->
<svg width="866pt" height="1376pt"
 viewBox="0.00 0.00 866.00 1376.00" xmlns="http://www.w3.org/2000/svg" xmlns:xlink="http://www.w3.org/1999/xlink">
<g id="graph1" class="graph" transform="scale(1 1) rotate(0) translate(4 1372)">
<title>G</title>
<polygon fill="white" stroke="white" points="-4,5 -4,-1372 863,-1372 863,5 -4,5"/>
<g id="graph2" class="cluster"><title>cluster_Global</title>
<polyline fill="none" stroke="gray" points="314,-314 838,-314 "/>
<path fill="none" stroke="gray" d="M838,-314C844,-314 850,-320 850,-326"/>
<polyline fill="none" stroke="gray" points="850,-326 850,-1348 "/>
<path fill="none" stroke="gray" d="M850,-1348C850,-1354 844,-1360 838,-1360"/>
<polyline fill="none" stroke="gray" points="838,-1360 314,-1360 "/>
<path fill="none" stroke="gray" d="M314,-1360C308,-1360 302,-1354 302,-1348"/>
<polyline fill="none" stroke="gray" points="302,-1348 302,-326 "/>
<path fill="none" stroke="gray" d="M302,-326C302,-320 308,-314 314,-314"/>
<text text-anchor="middle" x="576" y="-1346.1" font-family="Times Roman,serif" font-size="11.00" fill="gray">Global</text>
</g>
<!-- \\TranslationFixture -->
<g id="node2" class="node"><title>\\TranslationFixture</title>
<polygon fill="none" stroke="black" points="811,-952 673,-952 673,-916 811,-916 811,-952"/>
<text text-anchor="middle" x="742" y="-931.1" font-family="Courier,monospace" font-size="11.00">TranslationFixture</text>
</g>
<!-- \\CakeTestFixture -->
<g id="node24" class="node"><title>\\CakeTestFixture</title>
<ellipse fill="none" stroke="black" cx="403" cy="-288" rx="92.1303" ry="18.3848"/>
<text text-anchor="middle" x="403" y="-284.4" font-family="Times Roman,serif" font-size="14.00" fill="gray">\CakeTestFixture</text>
</g>
<!-- \\TranslationFixture&#45;&gt;\\CakeTestFixture -->
<g id="edge3" class="edge"><title>\\TranslationFixture&#45;&gt;\\CakeTestFixture</title>
<path fill="none" stroke="black" d="M672.878,-926.844C661.13,-922.667 650.121,-916.381 642,-907 467.074,-704.944 757.94,-500.011 570,-310 550.128,-289.909 521.463,-281.851 493.475,-279.604"/>
<polygon fill="none" stroke="black" points="493.392,-276.094 483.212,-279.028 493,-283.083 493.392,-276.094"/>
</g>
<!-- \\MessageReferenceFixture -->
<g id="node3" class="node"><title>\\MessageReferenceFixture</title>
<polygon fill="none" stroke="black" points="828,-898 656,-898 656,-862 828,-862 828,-898"/>
<text text-anchor="middle" x="742" y="-877.1" font-family="Courier,monospace" font-size="11.00">MessageReferenceFixture</text>
</g>
<!-- \\MessageReferenceFixture&#45;&gt;\\CakeTestFixture -->
<g id="edge5" class="edge"><title>\\MessageReferenceFixture&#45;&gt;\\CakeTestFixture</title>
<path fill="none" stroke="black" d="M655.913,-864.677C650.752,-861.452 646.029,-857.599 642,-853 481.575,-669.889 742.215,-482.069 570,-310 550.194,-290.21 521.844,-282.146 494.111,-279.805"/>
<polygon fill="none" stroke="black" points="494.132,-276.3 483.939,-279.19 493.709,-283.287 494.132,-276.3"/>
</g>
<!-- \\MessageFixture -->
<g id="node4" class="node"><title>\\MessageFixture</title>
<polygon fill="none" stroke="black" points="797,-844 687,-844 687,-808 797,-808 797,-844"/>
<text text-anchor="middle" x="742" y="-823.1" font-family="Courier,monospace" font-size="11.00">MessageFixture</text>
</g>
<!-- \\MessageFixture&#45;&gt;\\CakeTestFixture -->
<g id="edge7" class="edge"><title>\\MessageFixture&#45;&gt;\\CakeTestFixture</title>
<path fill="none" stroke="black" d="M686.299,-822.486C669.871,-818.705 653.29,-811.701 642,-799 496.056,-634.811 726.511,-464.149 570,-310 550.145,-290.445 521.931,-282.4 494.332,-280.006"/>
<polygon fill="none" stroke="black" points="494.408,-276.504 484.208,-279.368 493.968,-283.49 494.408,-276.504"/>
</g>
<!-- \\LanguageFixture -->
<g id="node5" class="node"><title>\\LanguageFixture</title>
<polygon fill="none" stroke="black" points="801,-790 683,-790 683,-754 801,-754 801,-790"/>
<text text-anchor="middle" x="742" y="-769.1" font-family="Courier,monospace" font-size="11.00">LanguageFixture</text>
</g>
<!-- \\LanguageFixture&#45;&gt;\\CakeTestFixture -->
<g id="edge9" class="edge"><title>\\LanguageFixture&#45;&gt;\\CakeTestFixture</title>
<path fill="none" stroke="black" d="M682.784,-767.47C667.581,-763.513 652.558,-756.667 642,-745 510.508,-599.701 710.838,-446.259 570,-310 550.158,-290.804 522.24,-282.774 494.9,-280.285"/>
<polygon fill="none" stroke="black" points="495.082,-276.789 484.87,-279.608 494.611,-283.773 495.082,-276.789"/>
</g>
<!-- \\MessageTest -->
<g id="node6" class="node"><title>\\MessageTest</title>
<polygon fill="none" stroke="black" points="787,-736 697,-736 697,-700 787,-700 787,-736"/>
<text text-anchor="middle" x="742" y="-715.1" font-family="Courier,monospace" font-size="11.00">MessageTest</text>
</g>
<!-- \\CakeTestCase -->
<g id="node29" class="node"><title>\\CakeTestCase</title>
<ellipse fill="none" stroke="black" cx="403" cy="-234" rx="82.0244" ry="18.3848"/>
<text text-anchor="middle" x="403" y="-230.4" font-family="Times Roman,serif" font-size="14.00" fill="gray">\CakeTestCase</text>
</g>
<!-- \\MessageTest&#45;&gt;\\CakeTestCase -->
<g id="edge11" class="edge"><title>\\MessageTest&#45;&gt;\\CakeTestCase</title>
<path fill="none" stroke="black" d="M696.284,-716.271C676.919,-713.141 655.71,-706.121 642,-691 511.845,-547.448 707.401,-397.632 570,-261 549.228,-240.345 519.293,-231.686 490.486,-228.811"/>
<polygon fill="none" stroke="black" points="490.602,-225.31 480.361,-228.025 490.061,-232.289 490.602,-225.31"/>
</g>
<!-- \\LanguageTest -->
<g id="node7" class="node"><title>\\LanguageTest</title>
<polygon fill="none" stroke="black" points="791,-682 693,-682 693,-646 791,-646 791,-682"/>
<text text-anchor="middle" x="742" y="-661.1" font-family="Courier,monospace" font-size="11.00">LanguageTest</text>
</g>
<!-- \\LanguageTest&#45;&gt;\\CakeTestCase -->
<g id="edge13" class="edge"><title>\\LanguageTest&#45;&gt;\\CakeTestCase</title>
<path fill="none" stroke="black" d="M692.85,-661.492C674.524,-658.068 655.028,-651.037 642,-637 526.253,-512.29 692.039,-379.561 570,-261 549.178,-240.771 519.538,-232.138 490.994,-229.163"/>
<polygon fill="none" stroke="black" points="491.213,-225.669 480.959,-228.336 490.638,-232.645 491.213,-225.669"/>
</g>
<!-- \\MessagesControllerTest -->
<g id="node8" class="node"><title>\\MessagesControllerTest</title>
<polygon fill="none" stroke="black" points="824,-574 660,-574 660,-538 824,-538 824,-574"/>
<text text-anchor="middle" x="742" y="-553.1" font-family="Courier,monospace" font-size="11.00">MessagesControllerTest</text>
</g>
<!-- \\ControllerTestCase -->
<g id="node32" class="node"><title>\\ControllerTestCase</title>
<ellipse fill="none" stroke="black" cx="403" cy="-180" rx="106.773" ry="18.3848"/>
<text text-anchor="middle" x="403" y="-176.4" font-family="Times Roman,serif" font-size="14.00" fill="gray">\ControllerTestCase</text>
</g>
<!-- \\MessagesControllerTest&#45;&gt;\\ControllerTestCase -->
<g id="edge15" class="edge"><title>\\MessagesControllerTest&#45;&gt;\\ControllerTestCase</title>
<path fill="none" stroke="black" d="M659.184,-541.869C652.835,-538.428 646.974,-534.196 642,-529 540.598,-423.064 676.742,-307.553 570,-207 555.982,-193.795 538.19,-185.583 519.475,-180.673"/>
<polygon fill="none" stroke="black" points="520.151,-177.237 509.62,-178.398 518.576,-184.058 520.151,-177.237"/>
</g>
<!-- \\LanguagesControllerTest -->
<g id="node9" class="node"><title>\\LanguagesControllerTest</title>
<polygon fill="none" stroke="black" points="828,-520 656,-520 656,-484 828,-484 828,-520"/>
<text text-anchor="middle" x="742" y="-499.1" font-family="Courier,monospace" font-size="11.00">LanguagesControllerTest</text>
</g>
<!-- \\LanguagesControllerTest&#45;&gt;\\ControllerTestCase -->
<g id="edge17" class="edge"><title>\\LanguagesControllerTest&#45;&gt;\\ControllerTestCase</title>
<path fill="none" stroke="black" d="M655.637,-485.512C650.679,-482.547 646.066,-479.072 642,-475 554.844,-387.735 661.55,-289.644 570,-207 555.956,-194.322 538.404,-186.315 520,-181.431"/>
<polygon fill="none" stroke="black" points="520.545,-177.964 510.01,-179.091 518.948,-184.779 520.545,-177.964"/>
</g>
<!-- \\LocalizationExtractTaskTest -->
<g id="node10" class="node"><title>\\LocalizationExtractTaskTest</title>
<polygon fill="none" stroke="black" points="841,-628 643,-628 643,-592 841,-592 841,-628"/>
<text text-anchor="middle" x="742" y="-607.1" font-family="Courier,monospace" font-size="11.00">LocalizationExtractTaskTest</text>
</g>
<!-- \\LocalizationExtractTaskTest&#45;&gt;\\CakeTestCase -->
<g id="edge19" class="edge"><title>\\LocalizationExtractTaskTest&#45;&gt;\\CakeTestCase</title>
<path fill="none" stroke="black" d="M652.714,-591.958C648.841,-589.348 645.233,-586.378 642,-583 540.598,-477.064 676.742,-361.553 570,-261 549.152,-241.36 519.952,-232.766 491.789,-229.651"/>
<polygon fill="none" stroke="black" points="491.747,-226.134 481.478,-228.742 491.132,-233.107 491.747,-226.134"/>
</g>
<!-- \\AllLocalizationTest -->
<g id="node11" class="node"><title>\\AllLocalizationTest</title>
<polygon fill="none" stroke="black" points="814,-466 670,-466 670,-430 814,-430 814,-466"/>
<text text-anchor="middle" x="742" y="-445.1" font-family="Courier,monospace" font-size="11.00">AllLocalizationTest</text>
</g>
<!-- \\PHPUnit_Framework_TestSuite -->
<g id="node36" class="node"><title>\\PHPUnit_Framework_TestSuite</title>
<ellipse fill="none" stroke="black" cx="403" cy="-126" rx="166.877" ry="18.3848"/>
<text text-anchor="middle" x="403" y="-122.4" font-family="Times Roman,serif" font-size="14.00" fill="gray">\PHPUnit_Framework_TestSuite</text>
</g>
<!-- \\AllLocalizationTest&#45;&gt;\\PHPUnit_Framework_TestSuite -->
<g id="edge21" class="edge"><title>\\AllLocalizationTest&#45;&gt;\\PHPUnit_Framework_TestSuite</title>
<path fill="none" stroke="black" d="M669.313,-438.179C659.168,-434.173 649.625,-428.634 642,-421 554.844,-333.735 661.55,-235.644 570,-153 564.727,-148.24 558.96,-144.138 552.838,-140.613"/>
<polygon fill="none" stroke="black" points="554.123,-137.337 543.633,-135.852 550.907,-143.555 554.123,-137.337"/>
</g>
<!-- \\Translation -->
<g id="node12" class="node"><title>\\Translation</title>
<polygon fill="none" stroke="black" points="787,-1330 697,-1330 697,-1294 787,-1294 787,-1330"/>
<text text-anchor="middle" x="742" y="-1309.1" font-family="Courier,monospace" font-size="11.00">Translation</text>
</g>
<!-- \\LocalizationAppModel -->
<g id="node15" class="node"><title>\\LocalizationAppModel</title>
<polygon fill="none" stroke="black" points="479,-1249 327,-1249 327,-1213 479,-1213 479,-1249"/>
<text text-anchor="start" x="369" y="-1236.43" font-family="Courier,monospace" font-size="11.00">«abstract»</text>
<text text-anchor="start" x="335" y="-1223.23" font-family="Courier,monospace" font-size="11.00">LocalizationAppModel</text>
</g>
<!-- \\Translation&#45;&gt;\\LocalizationAppModel -->
<g id="edge23" class="edge"><title>\\Translation&#45;&gt;\\LocalizationAppModel</title>
<path fill="none" stroke="black" d="M696.281,-1301.08C643.163,-1288.38 554.385,-1267.17 488.391,-1251.4"/>
<polygon fill="none" stroke="black" points="488.956,-1247.94 478.416,-1249.02 487.329,-1254.75 488.956,-1247.94"/>
</g>
<!-- \\MessageReference -->
<g id="node13" class="node"><title>\\MessageReference</title>
<polygon fill="none" stroke="black" points="804,-1276 680,-1276 680,-1240 804,-1240 804,-1276"/>
<text text-anchor="middle" x="742" y="-1255.1" font-family="Courier,monospace" font-size="11.00">MessageReference</text>
</g>
<!-- \\MessageReference&#45;&gt;\\LocalizationAppModel -->
<g id="edge25" class="edge"><title>\\MessageReference&#45;&gt;\\LocalizationAppModel</title>
<path fill="none" stroke="black" d="M679.427,-1253.02C626.167,-1248.77 549.099,-1242.64 489.861,-1237.92"/>
<polygon fill="none" stroke="black" points="490.014,-1234.42 479.768,-1237.11 489.458,-1241.4 490.014,-1234.42"/>
</g>
<!-- \\Message -->
<g id="node14" class="node"><title>\\Message</title>
<polygon fill="none" stroke="black" points="774,-1222 710,-1222 710,-1186 774,-1186 774,-1222"/>
<text text-anchor="middle" x="742" y="-1201.1" font-family="Courier,monospace" font-size="11.00">Message</text>
</g>
<!-- \\Message&#45;&gt;\\LocalizationAppModel -->
<g id="edge27" class="edge"><title>\\Message&#45;&gt;\\LocalizationAppModel</title>
<path fill="none" stroke="black" d="M709.802,-1206.56C659.866,-1210.54 562.026,-1218.33 490.209,-1224.05"/>
<polygon fill="none" stroke="black" points="489.501,-1220.6 479.811,-1224.88 490.057,-1227.58 489.501,-1220.6"/>
</g>
<!-- \\AppModel -->
<g id="node41" class="node"><title>\\AppModel</title>
<ellipse fill="none" stroke="black" cx="82" cy="-1231" rx="62.2254" ry="18.3848"/>
<text text-anchor="middle" x="82" y="-1227.4" font-family="Times Roman,serif" font-size="14.00" fill="gray">\AppModel</text>
</g>
<!-- \\LocalizationAppModel&#45;&gt;\\AppModel -->
<g id="edge29" class="edge"><title>\\LocalizationAppModel&#45;&gt;\\AppModel</title>
<path fill="none" stroke="black" d="M326.113,-1231C273.969,-1231 205.489,-1231 154.334,-1231"/>
<polygon fill="none" stroke="black" points="154.019,-1227.5 144.019,-1231 154.019,-1234.5 154.019,-1227.5"/>
</g>
<!-- \\Language -->
<g id="node16" class="node"><title>\\Language</title>
<polygon fill="none" stroke="black" points="777,-1168 707,-1168 707,-1132 777,-1132 777,-1168"/>
<text text-anchor="middle" x="742" y="-1147.1" font-family="Courier,monospace" font-size="11.00">Language</text>
</g>
<!-- \\Language&#45;&gt;\\LocalizationAppModel -->
<g id="edge31" class="edge"><title>\\Language&#45;&gt;\\LocalizationAppModel</title>
<path fill="none" stroke="black" d="M706.362,-1158.52C654.976,-1170.79 558.524,-1193.84 488.131,-1210.66"/>
<polygon fill="none" stroke="black" points="487.292,-1207.26 478.379,-1212.99 488.919,-1214.07 487.292,-1207.26"/>
</g>
<!-- \\MessagesController -->
<g id="node17" class="node"><title>\\MessagesController</title>
<polygon fill="none" stroke="black" points="811,-1114 673,-1114 673,-1078 811,-1078 811,-1114"/>
<text text-anchor="middle" x="742" y="-1093.1" font-family="Courier,monospace" font-size="11.00">MessagesController</text>
</g>
<!-- \\LocalizationAppController -->
<g id="node19" class="node"><title>\\LocalizationAppController</title>
<polygon fill="none" stroke="black" points="495,-1060 311,-1060 311,-1024 495,-1024 495,-1060"/>
<text text-anchor="middle" x="403" y="-1039.1" font-family="Courier,monospace" font-size="11.00">LocalizationAppController</text>
</g>
<!-- \\MessagesController&#45;&gt;\\LocalizationAppController -->
<g id="edge33" class="edge"><title>\\MessagesController&#45;&gt;\\LocalizationAppController</title>
<path fill="none" stroke="black" d="M672.99,-1085.01C624.876,-1077.34 559.856,-1066.99 505.68,-1058.36"/>
<polygon fill="none" stroke="black" points="506.122,-1054.88 495.696,-1056.77 505.021,-1061.8 506.122,-1054.88"/>
</g>
<!-- \\LocalizationController -->
<g id="node18" class="node"><title>\\LocalizationController</title>
<polygon fill="none" stroke="black" points="824,-1060 660,-1060 660,-1024 824,-1024 824,-1060"/>
<text text-anchor="middle" x="742" y="-1039.1" font-family="Courier,monospace" font-size="11.00">LocalizationController</text>
</g>
<!-- \\LocalizationController&#45;&gt;\\LocalizationAppController -->
<g id="edge35" class="edge"><title>\\LocalizationController&#45;&gt;\\LocalizationAppController</title>
<path fill="none" stroke="black" d="M659.071,-1042C612.767,-1042 554.681,-1042 505.541,-1042"/>
<polygon fill="none" stroke="black" points="505.519,-1038.5 495.519,-1042 505.519,-1045.5 505.519,-1038.5"/>
</g>
<!-- \\AppController -->
<g id="node46" class="node"><title>\\AppController</title>
<ellipse fill="none" stroke="black" cx="82" cy="-1042" rx="82.0244" ry="18.3848"/>
<text text-anchor="middle" x="82" y="-1038.4" font-family="Times Roman,serif" font-size="14.00" fill="gray">\AppController</text>
</g>
<!-- \\LocalizationAppController&#45;&gt;\\AppController -->
<g id="edge37" class="edge"><title>\\LocalizationAppController&#45;&gt;\\AppController</title>
<path fill="none" stroke="black" d="M310.153,-1042C267.47,-1042 216.972,-1042 174.35,-1042"/>
<polygon fill="none" stroke="black" points="174.258,-1038.5 164.258,-1042 174.258,-1045.5 174.258,-1038.5"/>
</g>
<!-- \\LanguagesController -->
<g id="node20" class="node"><title>\\LanguagesController</title>
<polygon fill="none" stroke="black" points="814,-1006 670,-1006 670,-970 814,-970 814,-1006"/>
<text text-anchor="middle" x="742" y="-985.1" font-family="Courier,monospace" font-size="11.00">LanguagesController</text>
</g>
<!-- \\LanguagesController&#45;&gt;\\LocalizationAppController -->
<g id="edge39" class="edge"><title>\\LanguagesController&#45;&gt;\\LocalizationAppController</title>
<path fill="none" stroke="black" d="M669.336,-1002.4C638.733,-1008.24 602.698,-1014.81 570,-1020 549.306,-1023.29 527.113,-1026.46 505.882,-1029.32"/>
<polygon fill="none" stroke="black" points="505.326,-1025.86 495.877,-1030.65 506.252,-1032.8 505.326,-1025.86"/>
</g>
<!-- \\LocalizationExtractTask -->
<g id="node21" class="node"><title>\\LocalizationExtractTask</title>
<polygon fill="none" stroke="black" points="828,-412 656,-412 656,-376 828,-376 828,-412"/>
<text text-anchor="middle" x="742" y="-391.1" font-family="Courier,monospace" font-size="11.00">LocalizationExtractTask</text>
</g>
<!-- \\ExtractTask -->
<g id="node49" class="node"><title>\\ExtractTask</title>
<ellipse fill="none" stroke="black" cx="403" cy="-72" rx="70.9184" ry="18.3848"/>
<text text-anchor="middle" x="403" y="-68.4" font-family="Times Roman,serif" font-size="14.00" fill="gray">\ExtractTask</text>
</g>
<!-- \\LocalizationExtractTask&#45;&gt;\\ExtractTask -->
<g id="edge41" class="edge"><title>\\LocalizationExtractTask&#45;&gt;\\ExtractTask</title>
<path fill="none" stroke="black" d="M655.637,-377.512C650.679,-374.547 646.066,-371.072 642,-367 554.844,-279.735 661.55,-181.644 570,-99 546.398,-77.6942 512.892,-69.58 482.079,-67.3104"/>
<polygon fill="none" stroke="black" points="481.925,-63.7971 471.752,-66.7542 481.549,-70.787 481.925,-63.7971"/>
</g>
<!-- \\MessagesShell -->
<g id="node22" class="node"><title>\\MessagesShell</title>
<polygon fill="none" stroke="black" points="794,-358 690,-358 690,-322 794,-322 794,-358"/>
<text text-anchor="middle" x="742" y="-337.1" font-family="Courier,monospace" font-size="11.00">MessagesShell</text>
</g>
<!-- \\AppShell -->
<g id="node51" class="node"><title>\\AppShell</title>
<ellipse fill="none" stroke="black" cx="403" cy="-18" rx="56.7776" ry="18.3848"/>
<text text-anchor="middle" x="403" y="-14.4" font-family="Times Roman,serif" font-size="14.00" fill="gray">\AppShell</text>
</g>
<!-- \\MessagesShell&#45;&gt;\\AppShell -->
<g id="edge43" class="edge"><title>\\MessagesShell&#45;&gt;\\AppShell</title>
<path fill="none" stroke="black" d="M737.277,-321.674C722.627,-268.832 672.639,-115.462 570,-45 541.16,-25.2013 503.005,-17.9812 470.447,-15.9208"/>
<polygon fill="none" stroke="black" points="470.247,-12.4073 460.091,-15.4237 469.912,-19.3992 470.247,-12.4073"/>
</g>
</g>
</svg>
