<?xml version="1.0" encoding="UTF-8" standalone="no"?>
<!DOCTYPE svg PUBLIC "-//W3C//DTD SVG 1.1//EN"
 "http://www.w3.org/Graphics/SVG/1.1/DTD/svg11.dtd">
<!-- Generated by graphviz version 2.26.3 (20100126.1600)
 -->
<!-- Title: G Pages: 1 -->
<svg width="838pt" height="998pt"
 viewBox="0.00 0.00 838.00 998.00" xmlns="http://www.w3.org/2000/svg" xmlns:xlink="http://www.w3.org/1999/xlink">
<g id="graph1" class="graph" transform="scale(1 1) rotate(0) translate(4 994)">
<title>G</title>
<polygon fill="white" stroke="white" points="-4,5 -4,-994 835,-994 835,5 -4,5"/>
<g id="graph2" class="cluster"><title>cluster_Global</title>
<polyline fill="none" stroke="gray" points="314,-206 810,-206 "/>
<path fill="none" stroke="gray" d="M810,-206C816,-206 822,-212 822,-218"/>
<polyline fill="none" stroke="gray" points="822,-218 822,-970 "/>
<path fill="none" stroke="gray" d="M822,-970C822,-976 816,-982 810,-982"/>
<polyline fill="none" stroke="gray" points="810,-982 314,-982 "/>
<path fill="none" stroke="gray" d="M314,-982C308,-982 302,-976 302,-970"/>
<polyline fill="none" stroke="gray" points="302,-970 302,-218 "/>
<path fill="none" stroke="gray" d="M302,-218C302,-212 308,-206 314,-206"/>
<text text-anchor="middle" x="562" y="-968.1" font-family="Times Roman,serif" font-size="11.00" fill="gray">Global</text>
</g>
<!-- \\TranslationFixture -->
<g id="node2" class="node"><title>\\TranslationFixture</title>
<polygon fill="none" stroke="black" points="797,-628 659,-628 659,-592 797,-592 797,-628"/>
<text text-anchor="middle" x="728" y="-607.1" font-family="Courier,monospace" font-size="11.00">TranslationFixture</text>
</g>
<!-- \\CakeTestFixture -->
<g id="node19" class="node"><title>\\CakeTestFixture</title>
<ellipse fill="none" stroke="black" cx="403" cy="-180" rx="92.1303" ry="18.3848"/>
<text text-anchor="middle" x="403" y="-176.4" font-family="Times Roman,serif" font-size="14.00" fill="gray">\CakeTestFixture</text>
</g>
<!-- \\TranslationFixture&#45;&gt;\\CakeTestFixture -->
<g id="edge3" class="edge"><title>\\TranslationFixture&#45;&gt;\\CakeTestFixture</title>
<path fill="none" stroke="black" d="M658.987,-596.163C652.623,-592.698 646.783,-588.38 642,-583 527.505,-454.203 695.207,-320.41 570,-202 550.312,-183.381 522.997,-175.358 496.156,-172.7"/>
<polygon fill="none" stroke="black" points="496.142,-169.19 485.909,-171.934 495.619,-176.17 496.142,-169.19"/>
</g>
<!-- \\MessageFixture -->
<g id="node3" class="node"><title>\\MessageFixture</title>
<polygon fill="none" stroke="black" points="783,-574 673,-574 673,-538 783,-538 783,-574"/>
<text text-anchor="middle" x="728" y="-553.1" font-family="Courier,monospace" font-size="11.00">MessageFixture</text>
</g>
<!-- \\MessageFixture&#45;&gt;\\CakeTestFixture -->
<g id="edge5" class="edge"><title>\\MessageFixture&#45;&gt;\\CakeTestFixture</title>
<path fill="none" stroke="black" d="M672.154,-547.733C660.877,-543.712 650.034,-537.77 642,-529 541.474,-419.271 679.641,-302.621 570,-202 550.322,-183.941 523.429,-175.967 496.973,-173.181"/>
<polygon fill="none" stroke="black" points="497.123,-169.682 486.871,-172.358 496.554,-176.659 497.123,-169.682"/>
</g>
<!-- \\LanguageFixture -->
<g id="node4" class="node"><title>\\LanguageFixture</title>
<polygon fill="none" stroke="black" points="787,-520 669,-520 669,-484 787,-484 787,-520"/>
<text text-anchor="middle" x="728" y="-499.1" font-family="Courier,monospace" font-size="11.00">LanguageFixture</text>
</g>
<!-- \\LanguageFixture&#45;&gt;\\CakeTestFixture -->
<g id="edge7" class="edge"><title>\\LanguageFixture&#45;&gt;\\CakeTestFixture</title>
<path fill="none" stroke="black" d="M668.869,-492.156C658.861,-488.21 649.348,-482.697 642,-475 555.35,-384.239 664.176,-284.925 570,-202 550.431,-184.768 524.234,-176.871 498.401,-173.897"/>
<polygon fill="none" stroke="black" points="498.426,-170.385 488.149,-172.962 497.79,-177.356 498.426,-170.385"/>
</g>
<!-- \\MessageTest -->
<g id="node5" class="node"><title>\\MessageTest</title>
<polygon fill="none" stroke="black" points="773,-466 683,-466 683,-430 773,-430 773,-466"/>
<text text-anchor="middle" x="728" y="-445.1" font-family="Courier,monospace" font-size="11.00">MessageTest</text>
</g>
<!-- \\CakeTestCase -->
<g id="node23" class="node"><title>\\CakeTestCase</title>
<ellipse fill="none" stroke="black" cx="403" cy="-126" rx="82.0244" ry="18.3848"/>
<text text-anchor="middle" x="403" y="-122.4" font-family="Times Roman,serif" font-size="14.00" fill="gray">\CakeTestCase</text>
</g>
<!-- \\MessageTest&#45;&gt;\\CakeTestCase -->
<g id="edge9" class="edge"><title>\\MessageTest&#45;&gt;\\CakeTestCase</title>
<path fill="none" stroke="black" d="M682.291,-442.489C667.706,-438.619 652.616,-432.068 642,-421 556.629,-331.988 661.55,-235.644 570,-153 549.03,-134.07 520.243,-125.554 492.472,-122.298"/>
<polygon fill="none" stroke="black" points="492.59,-118.794 482.303,-121.327 491.925,-125.762 492.59,-118.794"/>
</g>
<!-- \\LanguageTest -->
<g id="node6" class="node"><title>\\LanguageTest</title>
<polygon fill="none" stroke="black" points="777,-412 679,-412 679,-376 777,-376 777,-412"/>
<text text-anchor="middle" x="728" y="-391.1" font-family="Courier,monospace" font-size="11.00">LanguageTest</text>
</g>
<!-- \\LanguageTest&#45;&gt;\\CakeTestCase -->
<g id="edge11" class="edge"><title>\\LanguageTest&#45;&gt;\\CakeTestCase</title>
<path fill="none" stroke="black" d="M678.656,-386.965C665.373,-382.981 651.948,-376.748 642,-367 570.324,-296.767 646.54,-217.898 570,-153 548.852,-135.069 520.591,-126.691 493.338,-123.259"/>
<polygon fill="none" stroke="black" points="493.67,-119.774 483.359,-122.21 492.938,-126.736 493.67,-119.774"/>
</g>
<!-- \\MessagesControllerTest -->
<g id="node7" class="node"><title>\\MessagesControllerTest</title>
<polygon fill="none" stroke="black" points="810,-358 646,-358 646,-322 810,-322 810,-358"/>
<text text-anchor="middle" x="728" y="-337.1" font-family="Courier,monospace" font-size="11.00">MessagesControllerTest</text>
</g>
<!-- \\ControllerTestCase -->
<g id="node26" class="node"><title>\\ControllerTestCase</title>
<ellipse fill="none" stroke="black" cx="403" cy="-72" rx="106.773" ry="18.3848"/>
<text text-anchor="middle" x="403" y="-68.4" font-family="Times Roman,serif" font-size="14.00" fill="gray">\ControllerTestCase</text>
</g>
<!-- \\MessagesControllerTest&#45;&gt;\\ControllerTestCase -->
<g id="edge13" class="edge"><title>\\MessagesControllerTest&#45;&gt;\\ControllerTestCase</title>
<path fill="none" stroke="black" d="M653.508,-321.96C649.352,-319.364 645.465,-316.395 642,-313 570.324,-242.767 646.54,-163.898 570,-99 555.759,-86.9249 538.292,-79.1821 520.079,-74.3645"/>
<polygon fill="none" stroke="black" points="520.737,-70.9239 510.202,-72.0423 519.135,-77.7381 520.737,-70.9239"/>
</g>
<!-- \\LanguagesControllerTest -->
<g id="node8" class="node"><title>\\LanguagesControllerTest</title>
<polygon fill="none" stroke="black" points="814,-304 642,-304 642,-268 814,-268 814,-304"/>
<text text-anchor="middle" x="728" y="-283.1" font-family="Courier,monospace" font-size="11.00">LanguagesControllerTest</text>
</g>
<!-- \\LanguagesControllerTest&#45;&gt;\\ControllerTestCase -->
<g id="edge15" class="edge"><title>\\LanguagesControllerTest&#45;&gt;\\ControllerTestCase</title>
<path fill="none" stroke="black" d="M654.296,-267.797C649.897,-265.24 645.745,-262.325 642,-259 583.688,-207.226 631.883,-146.447 570,-99 555.448,-87.8423 538.06,-80.5212 520.085,-75.8289"/>
<polygon fill="none" stroke="black" points="520.587,-72.352 510.053,-73.4848 518.994,-79.1684 520.587,-72.352"/>
</g>
<!-- \\AllLocalizationTest -->
<g id="node9" class="node"><title>\\AllLocalizationTest</title>
<polygon fill="none" stroke="black" points="800,-250 656,-250 656,-214 800,-214 800,-250"/>
<text text-anchor="middle" x="728" y="-229.1" font-family="Courier,monospace" font-size="11.00">AllLocalizationTest</text>
</g>
<!-- \\PHPUnit_Framework_TestSuite -->
<g id="node29" class="node"><title>\\PHPUnit_Framework_TestSuite</title>
<ellipse fill="none" stroke="black" cx="403" cy="-18" rx="166.877" ry="18.3848"/>
<text text-anchor="middle" x="403" y="-14.4" font-family="Times Roman,serif" font-size="14.00" fill="gray">\PHPUnit_Framework_TestSuite</text>
</g>
<!-- \\AllLocalizationTest&#45;&gt;\\PHPUnit_Framework_TestSuite -->
<g id="edge17" class="edge"><title>\\AllLocalizationTest&#45;&gt;\\PHPUnit_Framework_TestSuite</title>
<path fill="none" stroke="black" d="M718.624,-213.933C697.707,-175.638 643.248,-86.4323 570,-45 561.277,-40.0656 551.911,-35.967 542.23,-32.5689"/>
<polygon fill="none" stroke="black" points="543.048,-29.1548 532.456,-29.3995 540.889,-35.8135 543.048,-29.1548"/>
</g>
<!-- \\Translation -->
<g id="node10" class="node"><title>\\Translation</title>
<polygon fill="none" stroke="black" points="773,-952 683,-952 683,-916 773,-916 773,-952"/>
<text text-anchor="middle" x="728" y="-931.1" font-family="Courier,monospace" font-size="11.00">Translation</text>
</g>
<!-- \\LocalizationAppModel -->
<g id="node12" class="node"><title>\\LocalizationAppModel</title>
<polygon fill="none" stroke="black" points="479,-898 327,-898 327,-862 479,-862 479,-898"/>
<text text-anchor="start" x="369" y="-885.433" font-family="Courier,monospace" font-size="11.00">«abstract»</text>
<text text-anchor="start" x="335" y="-872.233" font-family="Courier,monospace" font-size="11.00">LocalizationAppModel</text>
</g>
<!-- \\Translation&#45;&gt;\\LocalizationAppModel -->
<g id="edge19" class="edge"><title>\\Translation&#45;&gt;\\LocalizationAppModel</title>
<path fill="none" stroke="black" d="M682.468,-926.435C632.74,-918.172 551.924,-904.744 489.958,-894.448"/>
<polygon fill="none" stroke="black" points="490.231,-890.946 479.793,-892.759 489.084,-897.851 490.231,-890.946"/>
</g>
<!-- \\Message -->
<g id="node11" class="node"><title>\\Message</title>
<polygon fill="none" stroke="black" points="760,-898 696,-898 696,-862 760,-862 760,-898"/>
<text text-anchor="middle" x="728" y="-877.1" font-family="Courier,monospace" font-size="11.00">Message</text>
</g>
<!-- \\Message&#45;&gt;\\LocalizationAppModel -->
<g id="edge21" class="edge"><title>\\Message&#45;&gt;\\LocalizationAppModel</title>
<path fill="none" stroke="black" d="M695.948,-880C648.5,-880 557.864,-880 489.914,-880"/>
<polygon fill="none" stroke="black" points="489.638,-876.5 479.638,-880 489.638,-883.5 489.638,-876.5"/>
</g>
<!-- \\AppModel -->
<g id="node33" class="node"><title>\\AppModel</title>
<ellipse fill="none" stroke="black" cx="82" cy="-880" rx="62.2254" ry="18.3848"/>
<text text-anchor="middle" x="82" y="-876.4" font-family="Times Roman,serif" font-size="14.00" fill="gray">\AppModel</text>
</g>
<!-- \\LocalizationAppModel&#45;&gt;\\AppModel -->
<g id="edge23" class="edge"><title>\\LocalizationAppModel&#45;&gt;\\AppModel</title>
<path fill="none" stroke="black" d="M326.113,-880C273.969,-880 205.489,-880 154.334,-880"/>
<polygon fill="none" stroke="black" points="154.019,-876.5 144.019,-880 154.019,-883.5 154.019,-876.5"/>
</g>
<!-- \\Language -->
<g id="node13" class="node"><title>\\Language</title>
<polygon fill="none" stroke="black" points="763,-844 693,-844 693,-808 763,-808 763,-844"/>
<text text-anchor="middle" x="728" y="-823.1" font-family="Courier,monospace" font-size="11.00">Language</text>
</g>
<!-- \\Language&#45;&gt;\\LocalizationAppModel -->
<g id="edge25" class="edge"><title>\\Language&#45;&gt;\\LocalizationAppModel</title>
<path fill="none" stroke="black" d="M692.29,-831.933C643.903,-839.973 555.958,-854.585 489.691,-865.596"/>
<polygon fill="none" stroke="black" points="488.956,-862.17 479.665,-867.262 490.103,-869.075 488.956,-862.17"/>
</g>
<!-- \\MessagesController -->
<g id="node14" class="node"><title>\\MessagesController</title>
<polygon fill="none" stroke="black" points="797,-790 659,-790 659,-754 797,-754 797,-790"/>
<text text-anchor="middle" x="728" y="-769.1" font-family="Courier,monospace" font-size="11.00">MessagesController</text>
</g>
<!-- \\LocalizationAppController -->
<g id="node16" class="node"><title>\\LocalizationAppController</title>
<polygon fill="none" stroke="black" points="495,-736 311,-736 311,-700 495,-700 495,-736"/>
<text text-anchor="middle" x="403" y="-715.1" font-family="Courier,monospace" font-size="11.00">LocalizationAppController</text>
</g>
<!-- \\MessagesController&#45;&gt;\\LocalizationAppController -->
<g id="edge27" class="edge"><title>\\MessagesController&#45;&gt;\\LocalizationAppController</title>
<path fill="none" stroke="black" d="M658.678,-760.482C614.204,-753.092 555.666,-743.366 505.825,-735.085"/>
<polygon fill="none" stroke="black" points="506.094,-731.582 495.655,-733.395 504.946,-738.487 506.094,-731.582"/>
</g>
<!-- \\LocalizationController -->
<g id="node15" class="node"><title>\\LocalizationController</title>
<polygon fill="none" stroke="black" points="810,-736 646,-736 646,-700 810,-700 810,-736"/>
<text text-anchor="middle" x="728" y="-715.1" font-family="Courier,monospace" font-size="11.00">LocalizationController</text>
</g>
<!-- \\LocalizationController&#45;&gt;\\LocalizationAppController -->
<g id="edge29" class="edge"><title>\\LocalizationController&#45;&gt;\\LocalizationAppController</title>
<path fill="none" stroke="black" d="M645.148,-718C602.749,-718 550.739,-718 505.802,-718"/>
<polygon fill="none" stroke="black" points="505.735,-714.5 495.735,-718 505.735,-721.5 505.735,-714.5"/>
</g>
<!-- \\AppController -->
<g id="node38" class="node"><title>\\AppController</title>
<ellipse fill="none" stroke="black" cx="82" cy="-718" rx="82.0244" ry="18.3848"/>
<text text-anchor="middle" x="82" y="-714.4" font-family="Times Roman,serif" font-size="14.00" fill="gray">\AppController</text>
</g>
<!-- \\LocalizationAppController&#45;&gt;\\AppController -->
<g id="edge31" class="edge"><title>\\LocalizationAppController&#45;&gt;\\AppController</title>
<path fill="none" stroke="black" d="M310.153,-718C267.47,-718 216.972,-718 174.35,-718"/>
<polygon fill="none" stroke="black" points="174.258,-714.5 164.258,-718 174.258,-721.5 174.258,-714.5"/>
</g>
<!-- \\LanguagesController -->
<g id="node17" class="node"><title>\\LanguagesController</title>
<polygon fill="none" stroke="black" points="800,-682 656,-682 656,-646 800,-646 800,-682"/>
<text text-anchor="middle" x="728" y="-661.1" font-family="Courier,monospace" font-size="11.00">LanguagesController</text>
</g>
<!-- \\LanguagesController&#45;&gt;\\LocalizationAppController -->
<g id="edge33" class="edge"><title>\\LanguagesController&#45;&gt;\\LocalizationAppController</title>
<path fill="none" stroke="black" d="M655.434,-679.787C628.658,-685.324 598.02,-691.323 570,-696 549.332,-699.45 527.151,-702.692 505.923,-705.573"/>
<polygon fill="none" stroke="black" points="505.366,-702.116 495.919,-706.914 506.295,-709.054 505.366,-702.116"/>
</g>
</g>
</svg>
