<?xml version="1.0" encoding="UTF-8" standalone="no"?>
<!DOCTYPE svg PUBLIC "-//W3C//DTD SVG 1.1//EN"
 "http://www.w3.org/Graphics/SVG/1.1/DTD/svg11.dtd">
<!-- Generated by graphviz version 2.26.3 (20100126.1600)
 -->
<!-- Title: G Pages: 1 -->
<svg width="866pt" height="1538pt"
 viewBox="0.00 0.00 866.00 1538.00" xmlns="http://www.w3.org/2000/svg" xmlns:xlink="http://www.w3.org/1999/xlink">
<g id="graph1" class="graph" transform="scale(1 1) rotate(0) translate(4 1534)">
<title>G</title>
<polygon fill="white" stroke="white" points="-4,5 -4,-1534 863,-1534 863,5 -4,5"/>
<g id="graph2" class="cluster"><title>cluster_Global</title>
<polyline fill="none" stroke="gray" points="314,-314 838,-314 "/>
<path fill="none" stroke="gray" d="M838,-314C844,-314 850,-320 850,-326"/>
<polyline fill="none" stroke="gray" points="850,-326 850,-1510 "/>
<path fill="none" stroke="gray" d="M850,-1510C850,-1516 844,-1522 838,-1522"/>
<polyline fill="none" stroke="gray" points="838,-1522 314,-1522 "/>
<path fill="none" stroke="gray" d="M314,-1522C308,-1522 302,-1516 302,-1510"/>
<polyline fill="none" stroke="gray" points="302,-1510 302,-326 "/>
<path fill="none" stroke="gray" d="M302,-326C302,-320 308,-314 314,-314"/>
<text text-anchor="middle" x="576" y="-1508.1" font-family="Times Roman,serif" font-size="11.00" fill="gray">Global</text>
</g>
<!-- \\TranslationFixture -->
<g id="node2" class="node"><title>\\TranslationFixture</title>
<polygon fill="none" stroke="black" points="811,-1060 673,-1060 673,-1024 811,-1024 811,-1060"/>
<text text-anchor="middle" x="742" y="-1039.1" font-family="Courier,monospace" font-size="11.00">TranslationFixture</text>
</g>
<!-- \\CakeTestFixture -->
<g id="node27" class="node"><title>\\CakeTestFixture</title>
<ellipse fill="none" stroke="black" cx="403" cy="-288" rx="92.1303" ry="18.3848"/>
<text text-anchor="middle" x="403" y="-284.4" font-family="Times Roman,serif" font-size="14.00" fill="gray">\CakeTestFixture</text>
</g>
<!-- \\TranslationFixture&#45;&gt;\\CakeTestFixture -->
<g id="edge3" class="edge"><title>\\TranslationFixture&#45;&gt;\\CakeTestFixture</title>
<path fill="none" stroke="black" d="M672.996,-1035.05C661.163,-1030.87 650.094,-1024.52 642,-1015 540.015,-895.002 679.718,-422.971 570,-310 550.13,-289.541 521.164,-281.478 492.915,-279.334"/>
<polygon fill="none" stroke="black" points="492.725,-275.82 482.558,-278.8 492.365,-282.81 492.725,-275.82"/>
</g>
<!-- \\MessageReferenceFixture -->
<g id="node3" class="node"><title>\\MessageReferenceFixture</title>
<polygon fill="none" stroke="black" points="828,-1006 656,-1006 656,-970 828,-970 828,-1006"/>
<text text-anchor="middle" x="742" y="-985.1" font-family="Courier,monospace" font-size="11.00">MessageReferenceFixture</text>
</g>
<!-- \\MessageReferenceFixture&#45;&gt;\\CakeTestFixture -->
<g id="edge5" class="edge"><title>\\MessageReferenceFixture&#45;&gt;\\CakeTestFixture</title>
<path fill="none" stroke="black" d="M655.8,-972.775C650.665,-969.528 645.979,-965.642 642,-961 452.558,-739.981 773.682,-517.97 570,-310 550.136,-289.718 521.323,-281.655 493.204,-279.46"/>
<polygon fill="none" stroke="black" points="493.067,-275.947 482.893,-278.905 492.691,-282.937 493.067,-275.947"/>
</g>
<!-- \\MessageFixture -->
<g id="node4" class="node"><title>\\MessageFixture</title>
<polygon fill="none" stroke="black" points="797,-952 687,-952 687,-916 797,-916 797,-952"/>
<text text-anchor="middle" x="742" y="-931.1" font-family="Courier,monospace" font-size="11.00">MessageFixture</text>
</g>
<!-- \\MessageFixture&#45;&gt;\\CakeTestFixture -->
<g id="edge7" class="edge"><title>\\MessageFixture&#45;&gt;\\CakeTestFixture</title>
<path fill="none" stroke="black" d="M686.36,-930.721C669.836,-926.964 653.182,-919.916 642,-907 467.074,-704.944 757.94,-500.011 570,-310 550.128,-289.909 521.463,-281.851 493.475,-279.604"/>
<polygon fill="none" stroke="black" points="493.392,-276.094 483.212,-279.028 493,-283.083 493.392,-276.094"/>
</g>
<!-- \\LanguageFixture -->
<g id="node5" class="node"><title>\\LanguageFixture</title>
<polygon fill="none" stroke="black" points="801,-898 683,-898 683,-862 801,-862 801,-898"/>
<text text-anchor="middle" x="742" y="-877.1" font-family="Courier,monospace" font-size="11.00">LanguageFixture</text>
</g>
<!-- \\LanguageFixture&#45;&gt;\\CakeTestFixture -->
<g id="edge9" class="edge"><title>\\LanguageFixture&#45;&gt;\\CakeTestFixture</title>
<path fill="none" stroke="black" d="M682.799,-875.756C667.503,-871.813 652.428,-864.903 642,-853 481.575,-669.889 742.215,-482.069 570,-310 550.194,-290.21 521.844,-282.146 494.111,-279.805"/>
<polygon fill="none" stroke="black" points="494.132,-276.3 483.939,-279.19 493.709,-283.287 494.132,-276.3"/>
</g>
<!-- \\MessageTest -->
<g id="node6" class="node"><title>\\MessageTest</title>
<polygon fill="none" stroke="black" points="787,-844 697,-844 697,-808 787,-808 787,-844"/>
<text text-anchor="middle" x="742" y="-823.1" font-family="Courier,monospace" font-size="11.00">MessageTest</text>
</g>
<!-- \\CakeTestCase -->
<g id="node32" class="node"><title>\\CakeTestCase</title>
<ellipse fill="none" stroke="black" cx="403" cy="-234" rx="82.0244" ry="18.3848"/>
<text text-anchor="middle" x="403" y="-230.4" font-family="Times Roman,serif" font-size="14.00" fill="gray">\CakeTestCase</text>
</g>
<!-- \\MessageTest&#45;&gt;\\CakeTestCase -->
<g id="edge11" class="edge"><title>\\MessageTest&#45;&gt;\\CakeTestCase</title>
<path fill="none" stroke="black" d="M696.308,-824.519C676.828,-821.451 655.519,-814.411 642,-799 482.917,-617.642 738.244,-433.893 570,-261 549.387,-239.818 519.174,-231.117 490.093,-228.358"/>
<polygon fill="none" stroke="black" points="490.098,-224.849 479.872,-227.619 489.593,-231.831 490.098,-224.849"/>
</g>
<!-- \\LocalizationTest -->
<g id="node7" class="node"><title>\\LocalizationTest</title>
<polygon fill="none" stroke="black" points="804,-790 680,-790 680,-754 804,-754 804,-790"/>
<text text-anchor="middle" x="742" y="-769.1" font-family="Courier,monospace" font-size="11.00">LocalizationTest</text>
</g>
<!-- \\LocalizationTest&#45;&gt;\\CakeTestCase -->
<g id="edge13" class="edge"><title>\\LocalizationTest&#45;&gt;\\CakeTestCase</title>
<path fill="none" stroke="black" d="M679.276,-766.651C665.253,-762.578 651.685,-755.88 642,-745 497.395,-582.561 722.808,-415.747 570,-261 549.325,-240.063 519.255,-231.378 490.31,-228.563"/>
<polygon fill="none" stroke="black" points="490.369,-225.057 480.136,-227.801 489.847,-232.038 490.369,-225.057"/>
</g>
<!-- \\LanguageTest -->
<g id="node8" class="node"><title>\\LanguageTest</title>
<polygon fill="none" stroke="black" points="791,-736 693,-736 693,-700 791,-700 791,-736"/>
<text text-anchor="middle" x="742" y="-715.1" font-family="Courier,monospace" font-size="11.00">LanguageTest</text>
</g>
<!-- \\LanguageTest&#45;&gt;\\CakeTestCase -->
<g id="edge15" class="edge"><title>\\LanguageTest&#45;&gt;\\CakeTestCase</title>
<path fill="none" stroke="black" d="M692.941,-715.694C674.515,-712.31 654.924,-705.255 642,-691 511.845,-547.448 707.401,-397.632 570,-261 549.228,-240.345 519.293,-231.686 490.486,-228.811"/>
<polygon fill="none" stroke="black" points="490.602,-225.31 480.361,-228.025 490.061,-232.289 490.602,-225.31"/>
</g>
<!-- \\MessagesControllerTest -->
<g id="node9" class="node"><title>\\MessagesControllerTest</title>
<polygon fill="none" stroke="black" points="824,-628 660,-628 660,-592 824,-592 824,-628"/>
<text text-anchor="middle" x="742" y="-607.1" font-family="Courier,monospace" font-size="11.00">MessagesControllerTest</text>
</g>
<!-- \\ControllerTestCase -->
<g id="node36" class="node"><title>\\ControllerTestCase</title>
<ellipse fill="none" stroke="black" cx="403" cy="-180" rx="106.773" ry="18.3848"/>
<text text-anchor="middle" x="403" y="-176.4" font-family="Times Roman,serif" font-size="14.00" fill="gray">\ControllerTestCase</text>
</g>
<!-- \\MessagesControllerTest&#45;&gt;\\ControllerTestCase -->
<g id="edge17" class="edge"><title>\\MessagesControllerTest&#45;&gt;\\ControllerTestCase</title>
<path fill="none" stroke="black" d="M659.487,-596.291C652.99,-592.77 647.016,-588.404 642,-583 526.253,-458.29 692.039,-325.561 570,-207 556.098,-193.494 538.265,-185.157 519.451,-180.222"/>
<polygon fill="none" stroke="black" points="520.07,-176.773 509.539,-177.942 518.5,-183.595 520.07,-176.773"/>
</g>
<!-- \\LocalizationControllerTest -->
<g id="node10" class="node"><title>\\LocalizationControllerTest</title>
<polygon fill="none" stroke="black" points="838,-574 646,-574 646,-538 838,-538 838,-574"/>
<text text-anchor="middle" x="742" y="-553.1" font-family="Courier,monospace" font-size="11.00">LocalizationControllerTest</text>
</g>
<!-- \\LocalizationControllerTest&#45;&gt;\\ControllerTestCase -->
<g id="edge19" class="edge"><title>\\LocalizationControllerTest&#45;&gt;\\ControllerTestCase</title>
<path fill="none" stroke="black" d="M652.714,-537.958C648.841,-535.348 645.233,-532.378 642,-529 540.598,-423.064 676.742,-307.553 570,-207 555.982,-193.795 538.19,-185.583 519.475,-180.673"/>
<polygon fill="none" stroke="black" points="520.151,-177.237 509.62,-178.398 518.576,-184.058 520.151,-177.237"/>
</g>
<!-- \\LanguagesControllerTest -->
<g id="node11" class="node"><title>\\LanguagesControllerTest</title>
<polygon fill="none" stroke="black" points="828,-520 656,-520 656,-484 828,-484 828,-520"/>
<text text-anchor="middle" x="742" y="-499.1" font-family="Courier,monospace" font-size="11.00">LanguagesControllerTest</text>
</g>
<!-- \\LanguagesControllerTest&#45;&gt;\\ControllerTestCase -->
<g id="edge21" class="edge"><title>\\LanguagesControllerTest&#45;&gt;\\ControllerTestCase</title>
<path fill="none" stroke="black" d="M655.637,-485.512C650.679,-482.547 646.066,-479.072 642,-475 554.844,-387.735 661.55,-289.644 570,-207 555.956,-194.322 538.404,-186.315 520,-181.431"/>
<polygon fill="none" stroke="black" points="520.545,-177.964 510.01,-179.091 518.948,-184.779 520.545,-177.964"/>
</g>
<!-- \\LocalizationExtractTaskTest -->
<g id="node12" class="node"><title>\\LocalizationExtractTaskTest</title>
<polygon fill="none" stroke="black" points="841,-682 643,-682 643,-646 841,-646 841,-682"/>
<text text-anchor="middle" x="742" y="-661.1" font-family="Courier,monospace" font-size="11.00">LocalizationExtractTaskTest</text>
</g>
<!-- \\LocalizationExtractTaskTest&#45;&gt;\\CakeTestCase -->
<g id="edge23" class="edge"><title>\\LocalizationExtractTaskTest&#45;&gt;\\CakeTestCase</title>
<path fill="none" stroke="black" d="M652.145,-645.771C648.473,-643.204 645.058,-640.295 642,-637 526.253,-512.29 692.039,-379.561 570,-261 549.178,-240.771 519.538,-232.138 490.994,-229.163"/>
<polygon fill="none" stroke="black" points="491.213,-225.669 480.959,-228.336 490.638,-232.645 491.213,-225.669"/>
</g>
<!-- \\AllLocalizationTest -->
<g id="node13" class="node"><title>\\AllLocalizationTest</title>
<polygon fill="none" stroke="black" points="814,-466 670,-466 670,-430 814,-430 814,-466"/>
<text text-anchor="middle" x="742" y="-445.1" font-family="Courier,monospace" font-size="11.00">AllLocalizationTest</text>
</g>
<!-- \\PHPUnit_Framework_TestSuite -->
<g id="node41" class="node"><title>\\PHPUnit_Framework_TestSuite</title>
<ellipse fill="none" stroke="black" cx="403" cy="-126" rx="166.877" ry="18.3848"/>
<text text-anchor="middle" x="403" y="-122.4" font-family="Times Roman,serif" font-size="14.00" fill="gray">\PHPUnit_Framework_TestSuite</text>
</g>
<!-- \\AllLocalizationTest&#45;&gt;\\PHPUnit_Framework_TestSuite -->
<g id="edge25" class="edge"><title>\\AllLocalizationTest&#45;&gt;\\PHPUnit_Framework_TestSuite</title>
<path fill="none" stroke="black" d="M669.313,-438.179C659.168,-434.173 649.625,-428.634 642,-421 554.844,-333.735 661.55,-235.644 570,-153 564.727,-148.24 558.96,-144.138 552.838,-140.613"/>
<polygon fill="none" stroke="black" points="554.123,-137.337 543.633,-135.852 550.907,-143.555 554.123,-137.337"/>
</g>
<!-- \\Translation -->
<g id="node14" class="node"><title>\\Translation</title>
<polygon fill="none" stroke="black" points="787,-1492 697,-1492 697,-1456 787,-1456 787,-1492"/>
<text text-anchor="middle" x="742" y="-1471.1" font-family="Courier,monospace" font-size="11.00">Translation</text>
</g>
<!-- \\LocalizationAppModel -->
<g id="node17" class="node"><title>\\LocalizationAppModel</title>
<polygon fill="none" stroke="black" points="479,-1384 327,-1384 327,-1348 479,-1348 479,-1384"/>
<text text-anchor="start" x="369" y="-1371.43" font-family="Courier,monospace" font-size="11.00">«abstract»</text>
<text text-anchor="start" x="335" y="-1358.23" font-family="Courier,monospace" font-size="11.00">LocalizationAppModel</text>
</g>
<!-- \\Translation&#45;&gt;\\LocalizationAppModel -->
<g id="edge27" class="edge"><title>\\Translation&#45;&gt;\\LocalizationAppModel</title>
<path fill="none" stroke="black" d="M696.277,-1462.3C679.179,-1457.76 659.635,-1452.36 642,-1447 580.63,-1428.34 511.281,-1404.53 463.155,-1387.56"/>
<polygon fill="none" stroke="black" points="464.114,-1384.19 453.52,-1384.16 461.782,-1390.79 464.114,-1384.19"/>
</g>
<!-- \\MessageReference -->
<g id="node15" class="node"><title>\\MessageReference</title>
<polygon fill="none" stroke="black" points="804,-1438 680,-1438 680,-1402 804,-1402 804,-1438"/>
<text text-anchor="middle" x="742" y="-1417.1" font-family="Courier,monospace" font-size="11.00">MessageReference</text>
</g>
<!-- \\MessageReference&#45;&gt;\\LocalizationAppModel -->
<g id="edge29" class="edge"><title>\\MessageReference&#45;&gt;\\LocalizationAppModel</title>
<path fill="none" stroke="black" d="M679.427,-1410.03C626.167,-1401.55 549.099,-1389.27 489.861,-1379.84"/>
<polygon fill="none" stroke="black" points="490.194,-1376.35 479.768,-1378.23 489.092,-1383.26 490.194,-1376.35"/>
</g>
<!-- \\Message -->
<g id="node16" class="node"><title>\\Message</title>
<polygon fill="none" stroke="black" points="774,-1384 710,-1384 710,-1348 774,-1348 774,-1384"/>
<text text-anchor="middle" x="742" y="-1363.1" font-family="Courier,monospace" font-size="11.00">Message</text>
</g>
<!-- \\Message&#45;&gt;\\LocalizationAppModel -->
<g id="edge31" class="edge"><title>\\Message&#45;&gt;\\LocalizationAppModel</title>
<path fill="none" stroke="black" d="M709.802,-1366C659.866,-1366 562.026,-1366 490.209,-1366"/>
<polygon fill="none" stroke="black" points="489.811,-1362.5 479.811,-1366 489.811,-1369.5 489.811,-1362.5"/>
</g>
<!-- \\AppModel -->
<g id="node46" class="node"><title>\\AppModel</title>
<ellipse fill="none" stroke="black" cx="82" cy="-1366" rx="62.2254" ry="18.3848"/>
<text text-anchor="middle" x="82" y="-1362.4" font-family="Times Roman,serif" font-size="14.00" fill="gray">\AppModel</text>
</g>
<!-- \\LocalizationAppModel&#45;&gt;\\AppModel -->
<g id="edge33" class="edge"><title>\\LocalizationAppModel&#45;&gt;\\AppModel</title>
<path fill="none" stroke="black" d="M326.113,-1366C273.969,-1366 205.489,-1366 154.334,-1366"/>
<polygon fill="none" stroke="black" points="154.019,-1362.5 144.019,-1366 154.019,-1369.5 154.019,-1362.5"/>
</g>
<!-- \\Localization -->
<g id="node18" class="node"><title>\\Localization</title>
<polygon fill="none" stroke="black" points="791,-1330 693,-1330 693,-1294 791,-1294 791,-1330"/>
<text text-anchor="middle" x="742" y="-1309.1" font-family="Courier,monospace" font-size="11.00">Localization</text>
</g>
<!-- \\Localization&#45;&gt;\\LocalizationAppModel -->
<g id="edge35" class="edge"><title>\\Localization&#45;&gt;\\LocalizationAppModel</title>
<path fill="none" stroke="black" d="M692.706,-1319.85C639.629,-1328.31 554.153,-1341.92 489.772,-1352.18"/>
<polygon fill="none" stroke="black" points="488.954,-1348.76 479.629,-1353.79 490.055,-1355.68 488.954,-1348.76"/>
</g>
<!-- \\Language -->
<g id="node19" class="node"><title>\\Language</title>
<polygon fill="none" stroke="black" points="777,-1276 707,-1276 707,-1240 777,-1240 777,-1276"/>
<text text-anchor="middle" x="742" y="-1255.1" font-family="Courier,monospace" font-size="11.00">Language</text>
</g>
<!-- \\Language&#45;&gt;\\LocalizationAppModel -->
<g id="edge37" class="edge"><title>\\Language&#45;&gt;\\LocalizationAppModel</title>
<path fill="none" stroke="black" d="M706.207,-1267.08C687.073,-1272.08 663.162,-1278.56 642,-1285 580.63,-1303.66 511.281,-1327.47 463.155,-1344.44"/>
<polygon fill="none" stroke="black" points="461.782,-1341.21 453.52,-1347.84 464.114,-1347.81 461.782,-1341.21"/>
</g>
<!-- \\MessagesController -->
<g id="node20" class="node"><title>\\MessagesController</title>
<polygon fill="none" stroke="black" points="811,-1222 673,-1222 673,-1186 811,-1186 811,-1222"/>
<text text-anchor="middle" x="742" y="-1201.1" font-family="Courier,monospace" font-size="11.00">MessagesController</text>
</g>
<!-- \\LocalizationAppController -->
<g id="node22" class="node"><title>\\LocalizationAppController</title>
<polygon fill="none" stroke="black" points="495,-1168 311,-1168 311,-1132 495,-1132 495,-1168"/>
<text text-anchor="middle" x="403" y="-1147.1" font-family="Courier,monospace" font-size="11.00">LocalizationAppController</text>
</g>
<!-- \\MessagesController&#45;&gt;\\LocalizationAppController -->
<g id="edge39" class="edge"><title>\\MessagesController&#45;&gt;\\LocalizationAppController</title>
<path fill="none" stroke="black" d="M672.99,-1193.01C624.876,-1185.34 559.856,-1174.99 505.68,-1166.36"/>
<polygon fill="none" stroke="black" points="506.122,-1162.88 495.696,-1164.77 505.021,-1169.8 506.122,-1162.88"/>
</g>
<!-- \\LocalizationController -->
<g id="node21" class="node"><title>\\LocalizationController</title>
<polygon fill="none" stroke="black" points="824,-1168 660,-1168 660,-1132 824,-1132 824,-1168"/>
<text text-anchor="middle" x="742" y="-1147.1" font-family="Courier,monospace" font-size="11.00">LocalizationController</text>
</g>
<!-- \\LocalizationController&#45;&gt;\\LocalizationAppController -->
<g id="edge41" class="edge"><title>\\LocalizationController&#45;&gt;\\LocalizationAppController</title>
<path fill="none" stroke="black" d="M659.071,-1150C612.767,-1150 554.681,-1150 505.541,-1150"/>
<polygon fill="none" stroke="black" points="505.519,-1146.5 495.519,-1150 505.519,-1153.5 505.519,-1146.5"/>
</g>
<!-- \\AppController -->
<g id="node52" class="node"><title>\\AppController</title>
<ellipse fill="none" stroke="black" cx="82" cy="-1150" rx="82.0244" ry="18.3848"/>
<text text-anchor="middle" x="82" y="-1146.4" font-family="Times Roman,serif" font-size="14.00" fill="gray">\AppController</text>
</g>
<!-- \\LocalizationAppController&#45;&gt;\\AppController -->
<g id="edge43" class="edge"><title>\\LocalizationAppController&#45;&gt;\\AppController</title>
<path fill="none" stroke="black" d="M310.153,-1150C267.47,-1150 216.972,-1150 174.35,-1150"/>
<polygon fill="none" stroke="black" points="174.258,-1146.5 164.258,-1150 174.258,-1153.5 174.258,-1146.5"/>
</g>
<!-- \\LanguagesController -->
<g id="node23" class="node"><title>\\LanguagesController</title>
<polygon fill="none" stroke="black" points="814,-1114 670,-1114 670,-1078 814,-1078 814,-1114"/>
<text text-anchor="middle" x="742" y="-1093.1" font-family="Courier,monospace" font-size="11.00">LanguagesController</text>
</g>
<!-- \\LanguagesController&#45;&gt;\\LocalizationAppController -->
<g id="edge45" class="edge"><title>\\LanguagesController&#45;&gt;\\LocalizationAppController</title>
<path fill="none" stroke="black" d="M669.336,-1110.4C638.733,-1116.24 602.698,-1122.81 570,-1128 549.306,-1131.29 527.113,-1134.46 505.882,-1137.32"/>
<polygon fill="none" stroke="black" points="505.326,-1133.86 495.877,-1138.65 506.252,-1140.8 505.326,-1133.86"/>
</g>
<!-- \\LocalizationExtractTask -->
<g id="node24" class="node"><title>\\LocalizationExtractTask</title>
<polygon fill="none" stroke="black" points="828,-412 656,-412 656,-376 828,-376 828,-412"/>
<text text-anchor="middle" x="742" y="-391.1" font-family="Courier,monospace" font-size="11.00">LocalizationExtractTask</text>
</g>
<!-- \\ExtractTask -->
<g id="node55" class="node"><title>\\ExtractTask</title>
<ellipse fill="none" stroke="black" cx="403" cy="-72" rx="70.9184" ry="18.3848"/>
<text text-anchor="middle" x="403" y="-68.4" font-family="Times Roman,serif" font-size="14.00" fill="gray">\ExtractTask</text>
</g>
<!-- \\LocalizationExtractTask&#45;&gt;\\ExtractTask -->
<g id="edge47" class="edge"><title>\\LocalizationExtractTask&#45;&gt;\\ExtractTask</title>
<path fill="none" stroke="black" d="M655.637,-377.512C650.679,-374.547 646.066,-371.072 642,-367 554.844,-279.735 661.55,-181.644 570,-99 546.398,-77.6942 512.892,-69.58 482.079,-67.3104"/>
<polygon fill="none" stroke="black" points="481.925,-63.7971 471.752,-66.7542 481.549,-70.787 481.925,-63.7971"/>
</g>
<!-- \\MessagesShell -->
<g id="node25" class="node"><title>\\MessagesShell</title>
<polygon fill="none" stroke="black" points="794,-358 690,-358 690,-322 794,-322 794,-358"/>
<text text-anchor="middle" x="742" y="-337.1" font-family="Courier,monospace" font-size="11.00">MessagesShell</text>
</g>
<!-- \\AppShell -->
<g id="node57" class="node"><title>\\AppShell</title>
<ellipse fill="none" stroke="black" cx="403" cy="-18" rx="56.7776" ry="18.3848"/>
<text text-anchor="middle" x="403" y="-14.4" font-family="Times Roman,serif" font-size="14.00" fill="gray">\AppShell</text>
</g>
<!-- \\MessagesShell&#45;&gt;\\AppShell -->
<g id="edge49" class="edge"><title>\\MessagesShell&#45;&gt;\\AppShell</title>
<path fill="none" stroke="black" d="M737.277,-321.674C722.627,-268.832 672.639,-115.462 570,-45 541.16,-25.2013 503.005,-17.9812 470.447,-15.9208"/>
<polygon fill="none" stroke="black" points="470.247,-12.4073 460.091,-15.4237 469.912,-19.3992 470.247,-12.4073"/>
</g>
</g>
</svg>
